<?xml version="1.0" encoding="UTF-8" standalone="no"?>
<!DOCTYPE svg PUBLIC "-//W3C//DTD SVG 1.1//EN" "http://www.w3.org/Graphics/SVG/1.1/DTD/svg11.dtd">
<!-- Created with Vectornator (http://vectornator.io/) -->
<svg height="1024.0px" stroke-miterlimit="10" style="fill-rule:nonzero;clip-rule:evenodd;stroke-linecap:round;stroke-linejoin:round;" version="1.1" viewBox="0 0 1024 1024" width="1024.0px" xml:space="preserve" xmlns="http://www.w3.org/2000/svg" xmlns:xlink="http://www.w3.org/1999/xlink">
<defs/>
<g id="Layer-1">
<path d="M224.766 676.341C224.766 641.64 252.897 613.509 287.598 613.509C322.3 613.509 350.431 641.64 350.431 676.341C350.431 711.043 322.3 739.174 287.598 739.174C252.897 739.174 224.766 711.043 224.766 676.341Z" fill="#000000" fill-rule="nonzero" opacity="1" stroke="none"/>
<path d="M226.844 742.594C199.742 786.425 174.684 828.386 152.312 867.031C144.48 880.562 137.538 892.724 131.562 903.312C129.469 907.022 124.302 916.256 124.219 916.406L143.562 927.094C143.638 926.957 148.737 917.834 150.812 914.156C156.749 903.637 163.646 891.553 171.438 878.094C193.707 839.626 218.641 797.859 245.625 754.219L226.844 742.594ZM735.812 189.344C709.506 189.479 680.013 200.264 647.906 220.719C599.249 251.718 544.075 305.013 483.344 377.406C431.659 439.016 377.101 513.099 320.969 596.469L339.281 608.812C395.013 526.038 449.155 452.538 500.281 391.594C559.689 320.777 613.397 268.926 659.781 239.375C709.725 207.557 748.717 202.833 777.219 226C810.477 253.032 832.249 318.505 839.719 425.594L861.781 424.062C853.923 311.411 830.411 240.782 791.156 208.875C774.803 195.583 756.273 189.239 735.812 189.344Z" fill="#000000" fill-rule="nonzero" opacity="1" stroke="none"/>
<path d="M111.206 957.059L134.926 842.286L152.548 888.353L201.504 882.348L111.206 957.059Z" fill="#000000" fill-rule="nonzero" opacity="1" stroke="none"/>
</g>
</svg>
