<?xml version="1.0" encoding="UTF-8" standalone="no"?>
<!DOCTYPE svg PUBLIC "-//W3C//DTD SVG 1.1//EN" "http://www.w3.org/Graphics/SVG/1.1/DTD/svg11.dtd">
<!-- Created with Vectornator (http://vectornator.io/) -->
<svg height="1024.0px" stroke-miterlimit="10" style="fill-rule:nonzero;clip-rule:evenodd;stroke-linecap:round;stroke-linejoin:round;" version="1.1" viewBox="0 0 1024 1024" width="1024.0px" xml:space="preserve" xmlns="http://www.w3.org/2000/svg" xmlns:xlink="http://www.w3.org/1999/xlink">
<defs/>
<g id="Layer-1">
<path d="M191.007 225.698C191.007 190.996 219.138 162.865 253.84 162.865C288.541 162.865 316.672 190.996 316.672 225.698C316.672 260.399 288.541 288.53 253.84 288.53C219.138 288.53 191.007 260.399 191.007 225.698Z" fill="#000000" fill-rule="nonzero" opacity="1" stroke="none"/>
<path d="M392.812 238.375L386.125 259.438C482.203 290.028 565.71 336.106 637.562 395.688C700.655 448.005 753.803 509.907 797.812 579.469C848.177 659.075 884.135 744.446 908.094 829.812C916.476 859.68 922.776 887.403 927.25 912.25C928.811 920.919 930.014 928.583 930.938 935.188C931.258 937.483 931.514 939.479 931.719 941.156C931.838 942.14 931.937 942.795 931.969 943.094L953.938 940.781C953.893 940.36 953.791 939.607 953.656 938.5C953.436 936.693 953.152 934.551 952.812 932.125C951.849 925.239 950.582 917.302 948.969 908.344C944.374 882.827 937.954 854.412 929.375 823.844C904.871 736.535 868.068 649.214 816.469 567.656C771.263 496.204 716.609 432.516 651.656 378.656C577.641 317.281 491.622 269.835 392.812 238.375Z" fill="#000000" fill-rule="nonzero" opacity="1" stroke="none"/>
<path d="M351.63 239.161L468.72 234.133L428.352 262.472L446.131 308.479L351.63 239.161Z" fill="#000000" fill-rule="nonzero" opacity="1" stroke="none"/>
</g>
</svg>
