<?xml version="1.0" encoding="UTF-8" standalone="no"?>
<!DOCTYPE svg PUBLIC "-//W3C//DTD SVG 1.1//EN" "http://www.w3.org/Graphics/SVG/1.1/DTD/svg11.dtd">
<!-- Created with Vectornator (http://vectornator.io/) -->
<svg height="1024.0px" stroke-miterlimit="10" style="fill-rule:nonzero;clip-rule:evenodd;stroke-linecap:round;stroke-linejoin:round;" version="1.1" viewBox="0 0 1024 1024" width="1024.0px" xml:space="preserve" xmlns="http://www.w3.org/2000/svg" xmlns:xlink="http://www.w3.org/1999/xlink">
<defs/>
<g id="Layer-1">
<path d="M387.821 676.83C387.821 676.83 385.798 675.423 384.252 675.082C381.772 674.536 378.386 675.389 372.624 684.016L366.709 693.177C366.709 693.177 361.982 698.506 380.026 712.318C380.026 712.318 397.731 722.084 401.69 716.237C404.936 711.443 404.264 712.42 407.804 707.208C415.219 696.289 411.472 693.01 411.472 693.01C411.472 693.01 410.854 692.279 410.102 691.629C409.351 690.979 408.466 690.41 408.466 690.41L523.6 528.806L549.607 504.061L587.999 467.469C587.999 467.469 591.837 463.49 600.996 454.127C612.053 442.823 621.654 427.316 621.654 427.316C621.654 427.316 629.473 415.107 636.045 394.758C643.922 370.372 657.029 332.643 657.449 331.264C657.82 330.043 657.92 329.049 656.478 326.807C653.626 322.372 644.154 316.412 644.154 316.412C644.154 316.412 640.973 314.269 639.671 313.519C639.671 313.519 629.79 306.527 625.281 306.249C624.037 306.172 622.593 305.669 620.8 307.101C617.869 309.442 615.887 311.533 615.887 311.533L570.756 351.657C570.756 351.657 554.938 365.366 546.433 377.648C537.927 389.929 529.852 407.154 529.852 407.154C529.852 407.154 529.407 407.285 522.664 424.338C516.112 440.905 504.027 473.992 504.027 473.992L491.44 507.611" fill="#000000" fill-rule="nonzero" opacity="1" stroke="none"/>
<path d="M563.124 515.709L544.781 530.125C556.728 558.408 568.522 589.382 580.125 623.125C610.931 712.708 599.603 779.038 553.125 826.5C514.051 866.401 450.85 892.339 370.125 906.156C331.621 912.747 290.562 916.317 248.438 917.375C216.802 918.17 186.917 917.524 160.219 915.938C153.664 915.548 147.847 915.135 142.812 914.719C141.059 914.574 136.77 914.162 136.719 914.156L134.469 936.125C134.778 936.157 139.139 936.568 140.969 936.719C146.17 937.149 152.179 937.569 158.906 937.969C186.194 939.591 216.701 940.28 249 939.469C292.123 938.386 334.204 934.722 373.844 927.938C458.729 913.408 525.96 885.825 568.906 841.969C621.577 788.183 634.391 713.039 601 615.938C589.237 581.731 575.273 544.471 563.124 515.709ZM342.344 280.75C312.796 280.593 284.43 291.618 258 311.375C233.212 329.904 209.171 371.486 198.781 415.719C186.304 468.842 193.758 520.18 224.906 559.938C256.199 599.88 319.71 622.703 403.638 621.975L417.81 599.861C329.937 608.31 268.605 579.873 242.312 546.312C215.715 512.363 209.257 467.849 220.312 420.781C229.596 381.258 250.988 344.216 271.219 329.094C301.492 306.465 333.572 297.496 366.688 306.125C407.497 316.758 449.19 353.745 490.664 422.032C491.776 423.863 501.483 439.999 502.595 441.876L513 416.312C467.718 339.895 420.602 297.349 372.25 284.75C362.168 282.123 352.193 280.802 342.344 280.75ZM849.906 312.688C808.39 396.56 751.171 462.965 682.125 511.469C620.979 554.423 567.781 576.138 497.786 588.077L479.318 615.993C552.489 603.513 630.932 574.437 694.812 529.562C766.866 478.946 826.557 409.697 869.719 322.5L849.906 312.688Z" fill="#000000" fill-rule="nonzero" opacity="1" stroke="none"/>
<path d="M895.295 252.645L877.183 368.435L857.342 323.279L808.736 331.658L895.295 252.645Z" fill="#000000" fill-rule="nonzero" opacity="1" stroke="none"/>
</g>
</svg>
