<?xml version="1.0" encoding="UTF-8" standalone="no"?>
<!DOCTYPE svg PUBLIC "-//W3C//DTD SVG 1.1//EN" "http://www.w3.org/Graphics/SVG/1.1/DTD/svg11.dtd">
<!-- Created with Vectornator (http://vectornator.io/) -->
<svg height="1024.0px" stroke-miterlimit="10" style="fill-rule:nonzero;clip-rule:evenodd;stroke-linecap:round;stroke-linejoin:round;" version="1.1" viewBox="0 0 1024 1024" width="1024.0px" xml:space="preserve" xmlns="http://www.w3.org/2000/svg" xmlns:xlink="http://www.w3.org/1999/xlink">
<defs/>
<g id="Layer-1">
<path d="M489.368 127.693C489.368 127.693 490.805 125.691 491.168 124.15C491.751 121.679 490.948 118.281 482.407 112.391L473.334 106.342C473.334 106.342 468.076 101.537 453.999 119.374C453.999 119.374 443.972 136.933 449.759 140.978C454.505 144.294 453.538 143.608 458.697 147.225C469.505 154.801 472.839 151.102 472.839 151.102C472.839 151.102 473.58 150.495 474.241 149.753C474.902 149.011 475.483 148.135 475.483 148.135L635.366 265.647L659.725 292.017L695.744 330.946C695.744 330.946 699.666 334.843 708.893 344.139C720.032 355.363 735.395 365.192 735.395 365.192C735.395 365.192 747.487 373.191 767.737 380.064C792.003 388.3 829.535 401.964 830.907 402.404C832.122 402.793 833.115 402.908 835.378 401.499C839.854 398.713 845.954 389.331 845.954 389.331C845.954 389.331 848.144 386.182 848.913 384.891C848.913 384.891 856.051 375.114 856.395 370.61C856.49 369.367 857.015 367.93 855.609 366.117C853.312 363.152 851.251 361.138 851.251 361.138L811.799 315.419C811.799 315.419 798.325 299.4 786.171 290.714C774.016 282.027 756.912 273.698 756.912 273.698C756.912 273.698 756.789 273.252 739.837 266.257C723.369 259.461 690.464 246.887 690.464 246.887L657.035 233.804" fill="#000000" fill-rule="nonzero" opacity="1" stroke="none"/>
<path d="M411.188 309.844C367.874 308.531 326.648 322.976 297.312 353.344C247.095 405.329 222.17 469.514 228.562 530.438C235.283 594.49 275.699 649.441 345.094 684.094C385.955 704.498 428.936 710.735 472.938 704.125C458.104 722.261 442.098 740.476 425 758.438C340.489 847.221 250.002 909.852 195.781 914.562L197.469 934.062C257.863 928.816 351.573 863.949 439.156 771.938C462.544 747.368 484.029 722.358 503.188 697.594C542.546 686.558 581.837 665.813 619.781 636.906C685.951 586.497 745.756 512.065 776.165 448.49C779.189 442.166 760.285 436.436 757.207 442.726C727.797 502.84 670.74 573.499 607.938 621.344C580.249 642.437 551.946 658.806 523.656 670C565.26 611.15 591.873 555.397 595.656 512.969C599.4 470.98 590.011 432.323 569.344 399.469C550.333 369.247 522.315 344.949 489.281 329.188C463.914 317.084 437.175 310.631 411.188 309.844ZM399.906 329.438C426.398 328.424 454.36 334.207 480.844 346.844C510.611 361.047 535.793 382.868 552.781 409.875C571.175 439.115 579.519 473.506 576.156 511.219C572.276 554.732 540.525 616.129 491.688 680.344C489.436 680.911 487.185 681.598 484.938 682.094C439.542 692.109 395.592 687.441 353.844 666.594C290.255 634.84 254.032 585.596 248.031 528.406C242.273 473.531 265.003 414.942 311.375 366.938C334.223 343.285 365.846 330.74 399.906 329.438Z" fill="#000000" fill-rule="nonzero" opacity="1" stroke="none"/>
<path d="M788.315 403.899L770.332 519.709L750.441 474.575L701.844 483.008L788.315 403.899Z" fill="#000000" fill-rule="nonzero" opacity="1" stroke="none"/>
</g>
</svg>
