<?xml version="1.0" encoding="UTF-8" standalone="no"?>
<!DOCTYPE svg PUBLIC "-//W3C//DTD SVG 1.1//EN" "http://www.w3.org/Graphics/SVG/1.1/DTD/svg11.dtd">
<!-- Created with Vectornator (http://vectornator.io/) -->
<svg height="1024.0px" stroke-miterlimit="10" style="fill-rule:nonzero;clip-rule:evenodd;stroke-linecap:round;stroke-linejoin:round;" version="1.1" viewBox="0 0 1024 1024" width="1024.0px" xml:space="preserve" xmlns="http://www.w3.org/2000/svg" xmlns:xlink="http://www.w3.org/1999/xlink">
<defs/>
<g id="Layer-1">
<path d="M483.92 677.438C483.92 677.438 485.169 679.562 486.43 680.518C488.454 682.052 491.886 682.693 500.73 677.268L509.934 671.421C509.934 671.421 516.457 668.559 505.846 648.465C505.846 648.465 493.85 632.188 487.808 635.842C482.854 638.839 483.873 638.233 478.477 641.486C467.175 648.301 469.207 652.847 469.207 652.847C469.207 652.847 469.462 653.77 469.873 654.675C470.283 655.58 470.849 656.466 470.849 656.466L298.669 755.085L264.696 766.683L214.517 783.858C214.517 783.858 209.367 785.866 197.131 790.539C182.358 796.181 167.151 806.249 167.151 806.249C167.151 806.249 154.941 814.068 140.459 829.801C123.104 848.656 95.4148 877.442 94.457 878.519C93.6091 879.472 93.1019 880.334 93.474 882.973C94.21 888.194 100.319 897.57 100.319 897.57C100.319 897.57 102.312 900.847 103.181 902.074C103.181 902.074 109.231 912.558 113.21 914.697C114.308 915.287 115.409 916.348 117.637 915.797C121.278 914.897 123.953 913.827 123.953 913.827L181.73 896.262C181.73 896.262 201.832 890.428 214.696 882.831C227.56 875.233 242.1 862.966 242.1 862.966C242.1 862.966 242.558 863.034 255.817 850.365C268.699 838.058 293.517 813.061 293.517 813.061L319.014 787.791" fill="#000000" fill-rule="nonzero" opacity="1" stroke="none"/>
<path d="M871.625 75.75C812.363 88.5156 727.501 164.624 652.125 266.875C632.013 294.158 613.836 321.646 597.938 348.594C560.254 364.468 523.853 389.996 489.812 423.438C424.572 487.532 370.637 579.472 352.5 649.438L371.438 654.375C388.673 587.889 440.79 499.045 503.531 437.406C528.373 413.001 554.414 393.212 581.094 378.562C547.178 442.165 527.723 500.803 529.281 543.375C530.823 585.502 544.977 622.71 569.594 652.719C592.238 680.323 623.097 700.904 657.844 712.406C728.997 735.96 804.797 718.488 845.281 664.406C888.596 606.544 905.281 539.738 891.313 480.094C876.626 417.386 829.656 367.912 756.469 342.219C713.372 327.089 669.924 326.306 627.094 338.375C639.54 318.525 653.161 298.429 667.875 278.469C740.607 179.804 822.545 106.367 875.75 94.9062L871.625 75.75ZM683.875 349.562C705.901 349.321 727.954 352.959 749.969 360.687C817.032 384.231 859.137 428.574 872.25 484.562C884.832 538.285 869.592 599.256 829.594 652.687C794.558 699.491 727.674 714.922 664 693.844C632.689 683.479 604.954 664.98 584.719 640.312C562.81 613.605 550.229 580.525 548.844 542.688C547.246 499.03 571.054 434.137 611.469 364.312C613.633 363.467 615.798 362.524 617.969 361.75C639.861 353.94 661.849 349.804 683.875 349.562Z" fill="#000000" fill-rule="nonzero" opacity="1" stroke="none"/>
<path d="M351.513 678.506L353.669 561.327L379.481 603.356L426.491 588.429L351.513 678.506Z" fill="#000000" fill-rule="nonzero" opacity="1" stroke="none"/>
</g>
</svg>
