<?xml version="1.0" encoding="UTF-8" standalone="no"?>
<!DOCTYPE svg PUBLIC "-//W3C//DTD SVG 1.1//EN" "http://www.w3.org/Graphics/SVG/1.1/DTD/svg11.dtd">
<!-- Created with Vectornator (http://vectornator.io/) -->
<svg height="1024.0px" stroke-miterlimit="10" style="fill-rule:nonzero;clip-rule:evenodd;stroke-linecap:round;stroke-linejoin:round;" version="1.1" viewBox="0 0 1024 1024" width="1024.0px" xml:space="preserve" xmlns="http://www.w3.org/2000/svg" xmlns:xlink="http://www.w3.org/1999/xlink">
<defs/>
<g id="Layer-1">
<path d="M585.905 214.555C627.468 254.145 629.067 319.932 589.478 361.495C549.888 403.058 484.1 404.658 442.538 365.068C442.443 364.978 442.256 364.798 442.256 364.798L585.569 214.236C585.569 214.236 585.793 214.449 585.905 214.555Z" fill="#000000" fill-rule="nonzero" opacity="1" stroke="none"/>
<path d="M739.985 361.321C698.422 321.731 632.635 323.331 593.045 364.894C553.456 406.457 555.055 472.244 596.618 511.834C596.712 511.923 596.901 512.102 596.901 512.102L740.32 361.641C740.32 361.641 740.097 361.428 739.985 361.321Z" fill="#000000" fill-rule="nonzero" opacity="1" stroke="none"/>
<path d="M610.026 358.283L598.646 370.229L587.267 382.175C587.267 382.175 586.595 375.369 582.843 371.795C579.091 368.222 572.26 367.88 572.26 367.88L583.639 355.934L595.018 343.988C595.018 343.988 595.691 350.794 599.443 354.368C603.195 357.941 610.026 358.283 610.026 358.283Z" fill="#000000" fill-rule="nonzero" opacity="1" stroke="none"/>
<path d="M546.531 394.5C447.987 506.576 366.158 629.376 300.156 753.938C277.394 796.895 258.172 836.996 242.406 873.156C236.88 885.831 232.205 897.119 228.312 906.875C226.946 910.301 225.754 913.3 224.781 915.844C224.439 916.74 223.649 918.85 223.594 919L241.969 925.75C242.009 925.641 242.736 923.698 243.062 922.844C244.002 920.387 245.137 917.463 246.469 914.125C250.286 904.557 254.932 893.483 260.375 881C275.949 845.281 294.947 805.598 317.469 763.094C382.797 639.802 463.795 518.243 561.25 407.406L560.593 393.945L546.531 394.5ZM910.656 94.4062C805.486 153.263 708.639 228.148 619.812 316.5L619.753 330.841L633.594 330.406C721.207 243.261 816.675 169.447 920.219 111.5L910.656 94.4062Z" fill="#000000" fill-rule="nonzero" opacity="1" stroke="none"/>
<path d="M943.774 85.5813L868.277 175.223L874.71 126.322L828.798 108.298L943.774 85.5813Z" fill="#000000" fill-rule="nonzero" opacity="1" stroke="none"/>
</g>
</svg>
