<?xml version="1.0" encoding="UTF-8" standalone="no"?>
<!DOCTYPE svg PUBLIC "-//W3C//DTD SVG 1.1//EN" "http://www.w3.org/Graphics/SVG/1.1/DTD/svg11.dtd">
<!-- Created with Vectornator (http://vectornator.io/) -->
<svg height="1024.0px" stroke-miterlimit="10" style="fill-rule:nonzero;clip-rule:evenodd;stroke-linecap:round;stroke-linejoin:round;" version="1.1" viewBox="0 0 1024 1024" width="1024.0px" xml:space="preserve" xmlns="http://www.w3.org/2000/svg" xmlns:xlink="http://www.w3.org/1999/xlink">
<defs/>
<g id="Layer-1">
<path d="M533.781 203.156C505.425 202.443 478.235 214.28 459.313 235C432.384 244.755 409.968 266.139 400.062 295.375C382.769 346.417 410.115 401.831 461.156 419.125C499.005 431.949 539.205 420.169 564.531 392.438C591.458 382.682 613.876 361.297 623.781 332.062C641.075 281.021 613.729 225.606 562.688 208.312C553.117 205.07 543.378 203.397 533.781 203.156ZM533.594 211.594C542.361 211.814 551.226 213.35 559.969 216.312C575.005 221.407 587.793 230.123 597.688 241.156C618.476 264.337 626.485 297.752 615.781 329.344C599.983 375.972 549.378 400.986 502.75 385.188C456.122 369.389 431.139 318.784 446.938 272.156C459.774 234.271 495.604 210.639 533.594 211.594Z" fill="#000000" fill-rule="nonzero" opacity="1" stroke="none"/>
<path d="M549.604 306.926C553.017 296.854 547.618 285.922 537.546 282.509C527.473 279.096 516.541 284.495 513.129 294.568C509.716 304.64 515.115 315.572 525.187 318.985C535.26 322.397 546.192 316.999 549.604 306.926Z" fill="#000000" fill-rule="nonzero" opacity="1" stroke="none"/>
<path d="M377.125 356.719C329.109 408.833 284.371 483.824 243 575.812C214.001 640.292 188.334 709.329 166.281 778.344C158.564 802.494 151.873 824.925 146.188 845.062C144.195 852.118 142.478 858.372 141.031 863.781C140.524 865.679 139.328 870.195 139.25 870.5L158.219 875.312C158.287 875.045 159.409 870.702 159.906 868.844C161.33 863.52 163.033 857.343 165 850.375C170.627 830.445 177.291 808.243 184.938 784.312C206.781 715.953 232.179 647.579 260.844 583.844C299.979 496.828 342.07 425.551 386.58 375.473C386.731 375.303 387.033 374.963 387.033 374.963L377.125 356.719ZM641.938 323.851L639.1 334.392L636.558 343.834L639.597 347.01C640.051 347.412 640.505 347.818 640.959 348.225C730.062 428.206 821.01 600.88 912.438 876.969L931.031 870.812C836.782 586.203 742.605 409.486 648.446 328.749C647.933 328.309 642.452 324.286 641.938 323.851Z" fill="#000000" fill-rule="nonzero" opacity="1" stroke="none"/>
<path d="M931.568 903.109L860.241 810.114L906.618 826.904L934.086 785.938L931.568 903.109Z" fill="#000000" fill-rule="nonzero" opacity="1" stroke="none"/>
</g>
</svg>
