<?xml version="1.0" encoding="UTF-8" standalone="no"?>
<!DOCTYPE svg PUBLIC "-//W3C//DTD SVG 1.1//EN" "http://www.w3.org/Graphics/SVG/1.1/DTD/svg11.dtd">
<!-- Created with Vectornator (http://vectornator.io/) -->
<svg height="1024.0px" stroke-miterlimit="10" style="fill-rule:nonzero;clip-rule:evenodd;stroke-linecap:round;stroke-linejoin:round;" version="1.1" viewBox="0 0 1024 1024" width="1024.0px" xml:space="preserve" xmlns="http://www.w3.org/2000/svg" xmlns:xlink="http://www.w3.org/1999/xlink">
<defs/>
<g id="Layer-1">
<g opacity="1">
<path d="M371.975 513.797C412.584 473.228 478.39 473.261 518.959 513.869C520.703 515.615 522.373 517.408 523.967 519.243C559.449 560.09 557.749 622.029 518.886 660.852C518.794 660.944 518.61 661.127 518.61 661.127L371.648 514.125C371.648 514.125 371.866 513.906 371.975 513.797Z" fill="#000000" fill-rule="nonzero" opacity="1" stroke="none"/>
<path d="M522.517 363.403C481.908 403.972 481.876 469.778 522.444 510.387C563.013 550.995 628.82 551.027 669.428 510.459C669.52 510.367 669.703 510.183 669.703 510.183L522.845 363.076C522.845 363.076 522.626 363.294 522.517 363.403Z" fill="#000000" fill-rule="nonzero" opacity="1" stroke="none"/>
<path d="M516.257 493.248L527.917 504.92L539.577 516.591C539.577 516.591 532.757 517.095 529.091 520.757C525.425 524.419 524.915 531.239 524.915 531.239L513.255 519.568L501.594 507.896C501.594 507.896 508.415 507.392 512.08 503.73C515.746 500.068 516.257 493.248 516.257 493.248Z" fill="#000000" fill-rule="nonzero" opacity="1" stroke="none"/>
</g>
<path d="M573.781 552.531L559.214 550.965L560.031 566.438C659.335 664.697 746.047 753.096 819.625 830.25C845.37 857.246 867.629 880.915 886.344 901.062C892.89 908.11 908.643 925.275 908.875 925.531L923.375 912.375C923.13 912.105 907.262 894.828 900.688 887.75C881.915 867.54 859.586 843.809 833.781 816.75C760.075 739.461 673.222 650.926 573.781 552.531ZM106.906 107.781L93.6562 122.188C225.222 243.121 349.243 360.538 465.438 473.625L481.774 474.926L479.094 459.594C362.767 346.379 238.611 228.843 106.906 107.781Z" fill="#000000" fill-rule="nonzero" opacity="1" stroke="none"/>
<path d="M72.2246 88.677L180.1 134.486L131.468 142.713L127.737 191.894L72.2246 88.677Z" fill="#000000" fill-rule="nonzero" opacity="1" stroke="none"/>
</g>
</svg>
