<?xml version="1.0" encoding="UTF-8" standalone="no"?>
<!DOCTYPE svg PUBLIC "-//W3C//DTD SVG 1.1//EN" "http://www.w3.org/Graphics/SVG/1.1/DTD/svg11.dtd">
<!-- Created with Vectornator (http://vectornator.io/) -->
<svg height="1024.0px" stroke-miterlimit="10" style="fill-rule:nonzero;clip-rule:evenodd;stroke-linecap:round;stroke-linejoin:round;" version="1.1" viewBox="0 0 1024 1024" width="1024.0px" xml:space="preserve" xmlns="http://www.w3.org/2000/svg" xmlns:xlink="http://www.w3.org/1999/xlink">
<defs/>
<g id="Layer-1">
<path d="M651.461 468.749C629.679 314.265 642.098 184.791 679.198 179.561C716.298 174.33 764.031 295.323 785.812 449.806C807.593 604.289 795.175 733.763 758.075 738.994C720.975 744.225 673.242 623.232 651.461 468.749Z" fill="none" opacity="1" stroke="#000000" stroke-linecap="butt" stroke-linejoin="round" stroke-width="22.0946"/>
<path d="M485.281 89.0938C453.654 88.1364 423.075 103.582 393.938 133.531C335.277 193.825 282.423 311.969 234.969 471.594C210.459 554.039 188.961 642.324 170.656 730.594C164.251 761.483 158.71 790.188 154.031 815.938C152.393 824.955 150.965 832.936 149.781 839.844C149.366 842.265 148.406 847.995 148.344 848.375L167.688 851.531C167.745 851.178 168.684 845.548 169.094 843.156C170.267 836.311 171.655 828.39 173.281 819.438C177.932 793.842 183.441 765.287 189.812 734.562C208.014 646.793 229.383 559.046 253.719 477.188C300.312 320.459 352.19 204.489 407.969 147.156C439.31 114.942 470.495 102.739 502.25 111.281C537.415 120.741 574.566 155.666 613.018 218.6C613.824 219.919 624.972 236.464 625.779 237.807L632.188 212.531C590.516 143.152 549.1 103.607 507.344 92.375C499.941 90.3836 492.58 89.3147 485.281 89.0938ZM663.032 270.052C663.032 270.052 659.239 306.695 659.609 307.499C693.271 380.742 727.351 474.369 761.806 589.32C761.965 589.848 776.402 636.778 776.56 637.307C776.56 637.307 779.76 581.074 779.733 580.985C745.376 466.671 711.342 373.224 677.59 299.715C677.154 298.765 663.468 270.996 663.032 270.052ZM808.372 678.909C808.372 678.909 806.836 691.005 804.227 700.574C801.618 710.144 798.042 717.68 798.042 717.68C798.149 718.078 798.15 717.984 798.257 718.382C808.611 757.179 819.005 797.882 829.406 840.5L848.406 835.875C838.098 793.64 827.807 753.278 817.541 714.768C817.308 713.897 808.604 679.779 808.372 678.909Z" fill="#000000" fill-rule="nonzero" opacity="1" stroke="none"/>
<path d="M851.789 877.098L785.003 780.79L830.522 799.784L859.922 760.182L851.789 877.098Z" fill="#000000" fill-rule="nonzero" opacity="1" stroke="none"/>
</g>
</svg>
