<?xml version="1.0" encoding="UTF-8" standalone="no"?>
<!DOCTYPE svg PUBLIC "-//W3C//DTD SVG 1.1//EN" "http://www.w3.org/Graphics/SVG/1.1/DTD/svg11.dtd">
<!-- Created with Vectornator (http://vectornator.io/) -->
<svg height="1024.0px" stroke-miterlimit="10" style="fill-rule:nonzero;clip-rule:evenodd;stroke-linecap:round;stroke-linejoin:round;" version="1.1" viewBox="0 0 1024 1024" width="1024.0px" xml:space="preserve" xmlns="http://www.w3.org/2000/svg" xmlns:xlink="http://www.w3.org/1999/xlink">
<defs/>
<g id="Layer-1">
<path d="M613.549 399.34C491.036 302.748 377.881 241.996 360.812 263.646C343.743 285.296 429.223 381.15 551.736 477.741C674.25 574.333 787.404 635.085 804.473 613.435C821.542 591.786 736.063 495.932 613.549 399.34Z" fill="none" opacity="1" stroke="#000000" stroke-linecap="butt" stroke-linejoin="round" stroke-width="22.0946"/>
<path d="M787.139 634.477C787.139 634.477 781.139 633.933 774.511 632.499C767.883 631.065 760.308 628.33 760.308 628.33C760.592 628.728 763.938 634.056 768.63 641.118C773.321 648.179 778.012 655.239 778.295 655.636C832.256 731.47 876.626 806.777 912.062 878.156C924.583 903.376 935.073 926.283 943.594 946.438C946.568 953.473 964.668 946.01 961.625 938.812C952.953 918.3 942.294 895.052 929.594 869.469C893.819 797.408 849.06 721.43 794.681 644.936C794.309 644.412 792.166 641.479 790.071 638.612C788.088 635.897 787.139 634.477 787.139 634.477ZM432.508 300.243C436.072 302.981 457.752 319.953 461.299 322.729C552.796 394.345 638.285 478.325 710.838 567.159C711.56 568.043 756.167 591.239 756.167 591.239C755.667 590.625 727.188 556.24 726.688 555.626C679.049 497.195 629.024 443.892 573.592 392.736C569.468 388.93 513.906 348.481 507.164 344.281C497.045 337.975 482.13 328.1 470.71 321.372C449.065 308.619 432.508 300.243 432.508 300.243ZM134.281 111.156L126.969 129.281C206.953 161.603 282.602 200.895 354.034 246.569C354.352 246.773 360.774 242.798 369.809 243.312C379.779 243.88 390.339 245.687 390.339 245.687C389.978 245.455 366.058 231.036 365.696 230.804C292.929 184.18 215.822 144.107 134.281 111.156Z" fill="#000000" fill-rule="nonzero" opacity="1" stroke="none"/>
<path d="M970.25 982.412L891.099 895.979L938.761 908.668L962.558 865.466L970.25 982.412Z" fill="#000000" fill-rule="nonzero" opacity="1" stroke="none"/>
</g>
</svg>
