<?xml version="1.0" encoding="UTF-8" standalone="no"?>
<!DOCTYPE svg PUBLIC "-//W3C//DTD SVG 1.1//EN" "http://www.w3.org/Graphics/SVG/1.1/DTD/svg11.dtd">
<!-- Created with Vectornator (http://vectornator.io/) -->
<svg height="1024.0px" stroke-miterlimit="10" style="fill-rule:nonzero;clip-rule:evenodd;stroke-linecap:round;stroke-linejoin:round;" version="1.1" viewBox="0 0 1024 1024" width="1024.0px" xml:space="preserve" xmlns="http://www.w3.org/2000/svg" xmlns:xlink="http://www.w3.org/1999/xlink">
<defs/>
<g id="Layer-1">
<path d="M747.048 485.611C713.187 416.25 717.101 344.71 755.792 325.822C794.482 306.933 853.297 347.849 887.158 417.21C921.02 486.571 917.105 558.112 878.415 577C839.724 595.888 780.909 554.972 747.048 485.611Z" fill="none" opacity="1" stroke="#000000" stroke-linecap="butt" stroke-linejoin="round" stroke-width="48.9438"/>
<path d="M571.125 133.812C535.818 134.896 500.88 153.448 466.438 187.531C401.148 252.139 338.332 371.211 278.75 529.344C246.558 614.783 217.356 706.269 191.656 797.75C182.663 829.764 174.735 859.47 167.969 886.156C165.599 895.502 163.549 903.809 161.812 910.969C161.204 913.478 159.811 919.419 159.719 919.812L178.75 924.25C178.835 923.884 180.242 918.073 180.844 915.594C182.565 908.499 184.585 900.248 186.938 890.969C193.664 864.438 201.553 834.878 210.5 803.031C236.058 712.054 265.091 621.073 297.062 536.219C355.714 380.555 417.454 263.547 480.188 201.469C515.728 166.299 550.41 150.107 584.125 153.875C621.201 158.018 658.644 186.344 696.125 241.781L712.344 230.812C671.947 171.063 629.933 139.284 586.281 134.406C581.224 133.841 576.169 133.658 571.125 133.812Z" fill="#000000" fill-rule="nonzero" opacity="1" stroke="none"/>
<path d="M732.986 270.341L634.183 207.306L683.506 207.243L695.327 159.358L732.986 270.341Z" fill="#000000" fill-rule="nonzero" opacity="1" stroke="none"/>
</g>
</svg>
