<?xml version="1.0" encoding="UTF-8"?>
<svg xmlns="http://www.w3.org/2000/svg" version="1.1" viewBox="0 0 860 763">
  <defs>
    <style>
      .cls-1 {
        stroke-width: 18px;
      }

      .cls-1, .cls-2 {
        stroke-linejoin: round;
      }

      .cls-1, .cls-2, .cls-3 {
        stroke: #000;
      }

      .cls-1, .cls-2, .cls-3, .cls-4, .cls-5 {
        fill: none;
      }

      .cls-6 {
        fill: #fff;
      }

      .cls-2 {
        stroke-width: 19px;
      }

      .cls-7 {
        fill: #224058;
      }

      .cls-3 {
        stroke-width: 19.1px;
      }

      .cls-3, .cls-4, .cls-5 {
        stroke-miterlimit: 10;
      }

      .cls-4 {
        stroke-width: 7px;
      }

      .cls-4, .cls-5 {
        stroke: #fff;
      }

      .cls-5 {
        stroke-width: 39.3px;
      }
    </style>
  </defs>
  <!-- Generator: Adobe Illustrator 28.7.1, SVG Export Plug-In . SVG Version: 1.2.0 Build 142)  -->
  <g>
    <g id="Layer_1">
      <circle cx="431.5" cy="382.4" r="371.4"/>
      <circle class="cls-4" cx="431.5" cy="382.4" r="255.2"/>
      <g>
        <g>
          <polygon class="cls-5" points="433 538.9 517.7 538.9 598.3 265 521.3 265 539.7 209.7 430.6 209.7 433 538.9"/>
          <polygon class="cls-3" points="433 538.9 517.7 538.9 598.3 265 521.3 265 539.7 209.7 430.6 209.7 433 538.9"/>
          <polygon class="cls-6" points="433 538.9 517.7 538.9 598.3 265 521.3 265 539.7 209.7 430.6 209.7 433 538.9"/>
        </g>
        <g>
          <polygon class="cls-5" points="430 538.9 345.3 538.9 264.7 265 341.7 265 323.4 209.7 432.4 209.7 430 538.9"/>
          <polygon class="cls-3" points="430 538.9 345.3 538.9 264.7 265 341.7 265 323.4 209.7 432.4 209.7 430 538.9"/>
          <polygon class="cls-6" points="430 538.9 345.3 538.9 264.7 265 341.7 265 323.4 209.7 432.4 209.7 430 538.9"/>
        </g>
      </g>
      <g>
        <path class="cls-2" d="M448.9,248c33.7-9.2,43.1-57.1,19.4-81.2,0,0-10.6,28.7-18.4,25.9s28.1-55.1-26.7-76.8c0,0,5,22.6-15.2,41.5-23.5,22.1-36.1,44.1-21.4,69.3,14.8,25.1,41.4,23.7,41.4,23.7,0,0-9.1-22.3-4.7-25.6,4.4-3.4,15.2,2,15.2,2l10.4,21.4Z"/>
        <path class="cls-6" d="M448.9,248c33.7-9.2,43.1-57.1,19.4-81.2,0,0-10.6,28.7-18.4,25.9s28.1-55.1-26.7-76.8c0,0,5,22.6-15.2,41.5-23.5,22.1-36.1,44.1-21.4,69.3,14.8,25.1,41.4,23.7,41.4,23.7,0,0-9.1-22.3-4.7-25.6,4.4-3.4,15.2,2,15.2,2l10.4,21.4Z"/>
      </g>
      <g>
        <path class="cls-6" d="M217.8,576.9c-100-75.6-122-221.2-51.4-324.8-67.4,102.9-44.3,241.9,48.9,314.6,3.3,2.6,4.5,7.1,2.5,10.2h0Z"/>
        <g>
          <path class="cls-6" d="M150,544.2c10.4.6,20.6.5,30.6-.2"/>
          <path class="cls-6" d="M150,544.2c7.9-3.2,21-3,30.6-.2-7.4,4.3-20.7,4.7-30.6.2t0,0Z"/>
        </g>
        <g>
          <path class="cls-6" d="M138.5,526.9c10.3,1.5,20.4,2.2,30.4,2.3"/>
          <path class="cls-6" d="M138.5,526.9c8.1-2.6,21.2-1.3,30.4,2.3-7.7,3.6-20.9,3-30.4-2.3t0,0Z"/>
        </g>
        <g>
          <path class="cls-6" d="M128.4,508.4c10.1,2.3,20.1,3.9,30.1,4.8"/>
          <path class="cls-6" d="M128.4,508.4c8.3-1.9,21.1.5,30.1,4.8-7.9,3-21,1.2-30.1-4.8h0Z"/>
        </g>
        <g>
          <path class="cls-6" d="M119.4,488.5c9.9,3.1,19.7,5.6,29.5,7.3"/>
          <path class="cls-6" d="M119.4,488.5c8.4-1.2,21,2.3,29.5,7.3-8.1,2.3-21-.6-29.5-7.3t0,0Z"/>
        </g>
        <g>
          <path class="cls-6" d="M112.1,468c9.6,4,19.2,7.3,28.8,9.8"/>
          <path class="cls-6" d="M112.1,468c8.5-.4,20.7,4.1,28.8,9.8-8.3,1.5-20.9-2.4-28.8-9.8t0,0Z"/>
        </g>
        <g>
          <path class="cls-6" d="M106.8,448.2c9.2,4.8,18.6,8.8,27.9,12.1"/>
          <path class="cls-6" d="M106.8,448.2c8.5.3,20.4,5.8,27.9,12.1-8.4.9-20.6-4.1-27.9-12.1h0Z"/>
        </g>
        <g>
          <path class="cls-6" d="M102.9,427.6c8.8,5.5,17.8,10.3,26.9,14.4"/>
          <path class="cls-6" d="M102.9,427.6c8.4,1,19.8,7.5,26.9,14.4-8.4.1-20.2-5.8-26.9-14.4h0Z"/>
        </g>
        <g>
          <path class="cls-6" d="M100.5,405.9c8.4,6.3,17,11.9,25.7,16.8"/>
          <path class="cls-6" d="M100.5,405.9c8.3,1.7,19.2,9.2,25.7,16.8-8.4-.6-19.7-7.6-25.7-16.8t0,0Z"/>
        </g>
        <g>
          <path class="cls-6" d="M99.8,384.1c7.8,7,16,13.3,24.3,19"/>
          <path class="cls-6" d="M99.8,384.1c8.1,2.5,18.4,10.9,24.3,19-8.3-1.3-19-9.3-24.3-19h0Z"/>
        </g>
        <g>
          <path class="cls-6" d="M100.8,363.5c7.3,7.7,14.9,14.7,22.8,21"/>
          <path class="cls-6" d="M100.8,363.5c7.9,3.2,17.5,12.4,22.8,21-8.2-2-18.3-10.9-22.8-21h0Z"/>
        </g>
        <g>
          <path class="cls-6" d="M103.4,342.6c6.7,8.3,13.7,15.9,21.1,22.9"/>
          <path class="cls-6" d="M103.4,342.6c7.7,3.8,16.5,13.9,21.1,22.9-8-2.7-17.4-12.4-21.1-22.9h0Z"/>
        </g>
        <g>
          <path class="cls-6" d="M107.9,321c6,8.9,12.4,17.2,19.1,24.8"/>
          <path class="cls-6" d="M107.9,321c7.3,4.5,15.3,15.4,19.1,24.8-7.8-3.4-16.3-14-19.1-24.8t0,0Z"/>
        </g>
        <g>
          <path class="cls-6" d="M114.2,299.8c5.2,9.5,10.9,18.4,17,26.6"/>
          <path class="cls-6" d="M114.2,299.8c6.9,5.2,13.9,16.8,17,26.6-7.4-4.1-15.1-15.5-17-26.6,0,0,0,0,0,0Z"/>
        </g>
        <g>
          <path class="cls-6" d="M121.7,280.2c4.4,10,9.4,19.3,14.8,28.2"/>
          <path class="cls-6" d="M121.7,280.2c6.5,5.8,12.5,18.1,14.8,28.2-7.1-4.8-13.8-16.8-14.8-28.2h0Z"/>
        </g>
        <g>
          <path class="cls-6" d="M131.1,260.7c3.5,10.4,7.7,20.3,12.4,29.6"/>
          <path class="cls-6" d="M131.1,260.7c6,6.4,10.9,19.3,12.4,29.6-6.7-5.4-12.4-18-12.4-29.6h0Z"/>
        </g>
        <g>
          <path class="cls-6" d="M142.7,241c2.6,10.8,5.8,21.1,9.7,30.9"/>
          <path class="cls-6" d="M142.7,241c5.4,6.9,9.2,20.4,9.7,30.9-6.2-6-10.8-19.3-9.7-30.9t0,0Z"/>
        </g>
        <g>
          <path class="cls-6" d="M158.8,275.5c9.8-1.4,19.6-2.2,29.1-2.2"/>
          <path class="cls-6" d="M158.8,275.5c8.1,2.3,20.6,1.1,29.1-2.2-7.7-3.4-20.4-2.7-29.1,2.2t0,0Z"/>
        </g>
        <g>
          <path class="cls-6" d="M150.8,292.2c9.6-2.2,19.2-3.7,28.7-4.5"/>
          <path class="cls-6" d="M150.8,292.2c8.3,1.6,20.6-.6,28.7-4.5-7.9-2.7-20.5-1.1-28.7,4.5h0Z"/>
        </g>
        <g>
          <path class="cls-6" d="M144.1,309.7c9.4-3,18.8-5.3,28.2-6.8"/>
          <path class="cls-6" d="M144.1,309.7c8.4.9,20.4-2.3,28.2-6.8-8.1-2-20.5.6-28.2,6.8h0Z"/>
        </g>
        <g>
          <path class="cls-6" d="M138.7,328.3c9.1-3.8,18.3-6.8,27.5-9.2"/>
          <path class="cls-6" d="M138.7,328.3c8.4.2,20.1-4.1,27.5-9.2-8.3-1.3-20.3,2.4-27.5,9.2h0Z"/>
        </g>
        <g>
          <path class="cls-6" d="M134.9,347.1c8.8-4.5,17.6-8.4,26.6-11.5"/>
          <path class="cls-6" d="M134.9,347.1c8.4-.6,19.7-5.8,26.6-11.5-8.3-.6-20,4.2-26.6,11.5h0Z"/>
        </g>
        <g>
          <path class="cls-6" d="M132.7,365c8.4-5.2,16.9-9.8,25.6-13.6"/>
          <path class="cls-6" d="M132.7,365c8.3-1.3,19.2-7.4,25.6-13.6-8.3.1-19.6,5.8-25.6,13.6h0Z"/>
        </g>
        <g>
          <path class="cls-6" d="M131.9,383.2c8-5.9,16.1-11.1,24.5-15.7"/>
          <path class="cls-6" d="M131.9,383.2c8.2-2,18.5-9,24.5-15.7-8.3.8-19.1,7.4-24.5,15.7t0,0Z"/>
        </g>
        <g>
          <path class="cls-6" d="M132.5,402.2c7.5-6.6,15.2-12.5,23.1-17.8"/>
          <path class="cls-6" d="M132.5,402.2c8-2.7,17.8-10.5,23.1-17.8-8.2,1.6-18.4,9-23.1,17.8t0,0Z"/>
        </g>
        <g>
          <path class="cls-6" d="M134.6,421.1c6.9-7.2,14.1-13.8,21.6-19.7"/>
          <path class="cls-6" d="M134.6,421.1c7.8-3.4,16.9-12.1,21.6-19.7-8,2.3-17.6,10.6-21.6,19.7,0,0,0,0,0,0Z"/>
        </g>
        <g>
          <path class="cls-6" d="M138,438.6c6.4-7.8,13.1-14.9,20.1-21.5"/>
          <path class="cls-6" d="M138,438.6c7.5-4,15.9-13.4,20.1-21.5-7.9,3-16.8,12-20.1,21.5h0Z"/>
        </g>
        <g>
          <path class="cls-6" d="M142.8,456.1c5.7-8.3,11.9-16,18.4-23.1"/>
          <path class="cls-6" d="M142.8,456.1c7.1-4.6,14.8-14.8,18.4-23.1-7.6,3.6-15.8,13.4-18.4,23.1t0,0Z"/>
        </g>
        <g>
          <path class="cls-6" d="M149.2,473.9c5-8.8,10.6-17,16.5-24.7"/>
          <path class="cls-6" d="M149.2,473.9c6.7-5.2,13.6-16.1,16.5-24.7-7.3,4.3-14.7,14.8-16.5,24.7h0Z"/>
        </g>
        <g>
          <path class="cls-6" d="M157,491.1c4.3-9.2,9.1-17.9,14.4-26.1"/>
          <path class="cls-6" d="M157,491.1c6.3-5.8,12.2-17.2,14.4-26.1-6.9,4.9-13.4,16.1-14.4,26.1t0,0Z"/>
        </g>
        <g>
          <path class="cls-6" d="M165.7,506.7c3.6-9.6,7.7-18.7,12.3-27.3"/>
          <path class="cls-6" d="M165.7,506.7c5.8-6.4,10.8-18.3,12.3-27.3-6.5,5.5-12.2,17.2-12.3,27.3h0Z"/>
        </g>
        <g>
          <path class="cls-6" d="M175.8,522c2.8-9.9,6.2-19.4,10.1-28.4"/>
          <path class="cls-6" d="M175.8,522c5.3-6.9,9.3-19.2,10.1-28.4-6.1,6-10.8,18.2-10.1,28.4h0Z"/>
        </g>
        <g>
          <path class="cls-6" d="M187.7,536.9c1.9-10.2,4.5-20,7.6-29.3"/>
          <path class="cls-6" d="M187.7,536.9c4.7-7.3,7.6-20.1,7.6-29.3-5.5,6.6-9.2,19.2-7.6,29.3h0Z"/>
        </g>
      </g>
      <g>
        <g>
          <path class="cls-1" d="M441.2,603.6l-1.6-1.2,3.6-153.2h-23.3l3.6,153.2-1.6,1.2c-2.6,1.9-4.2,4.8-4.2,8v7.7c0,1.9,1.3,3.7,3.3,4.2,6.8,1.8,13.9,1.8,21.2,0,2-.5,3.3-2.2,3.3-4.2v-7.6c0-3.2-1.6-6.1-4.2-8Z"/>
          <rect class="cls-1" x="417.8" y="401.4" width="27.4" height="12"/>
          <polygon class="cls-1" points="445 406.4 418 406.4 412.5 356.4 450.5 356.4 445 406.4"/>
          <rect class="cls-1" x="411.5" y="338.1" width="40" height="10.9"/>
          <rect class="cls-1" x="408.2" y="325.9" width="46.5" height="5.5"/>
          <rect class="cls-1" x="425.2" y="240.3" width="12.7" height="77.3"/>
          <rect class="cls-1" x="417.7" y="231.7" width="27.7" height="35.9" rx="9.1" ry="9.1"/>
        </g>
        <g>
          <path class="cls-7" d="M441.2,603.6l-1.6-1.2,3.6-153.2h-23.3l3.6,153.2-1.6,1.2c-2.6,1.9-4.2,4.8-4.2,8v7.7c0,1.9,1.3,3.7,3.3,4.2,6.8,1.8,13.9,1.8,21.2,0,2-.5,3.3-2.2,3.3-4.2v-7.6c0-3.2-1.6-6.1-4.2-8Z"/>
          <rect class="cls-7" x="417.8" y="401.4" width="27.4" height="12"/>
          <polygon class="cls-7" points="445 406.4 418 406.4 412.5 356.4 450.5 356.4 445 406.4"/>
          <rect class="cls-7" x="411.5" y="338.1" width="40" height="10.9"/>
          <rect class="cls-7" x="408.2" y="325.9" width="46.5" height="5.5"/>
          <rect class="cls-7" x="425.2" y="240.3" width="12.7" height="77.3"/>
          <rect class="cls-7" x="417.7" y="231.7" width="27.7" height="35.9" rx="9.1" ry="9.1"/>
        </g>
        <g>
          <path class="cls-6" d="M441.2,603.6l-1.6-1.2,3.6-153.2h-23.3l3.6,153.2-1.6,1.2c-2.6,1.9-4.2,4.8-4.2,8v7.7c0,1.9,1.3,3.7,3.3,4.2,6.8,1.8,13.9,1.8,21.2,0,2-.5,3.3-2.2,3.3-4.2v-7.6c0-3.2-1.6-6.1-4.2-8Z"/>
          <rect class="cls-6" x="417.8" y="401.4" width="27.4" height="12"/>
          <polygon class="cls-6" points="445 406.4 418 406.4 412.5 356.4 450.5 356.4 445 406.4"/>
          <rect class="cls-6" x="411.5" y="338.1" width="40" height="10.9"/>
          <rect class="cls-6" x="408.2" y="325.9" width="46.5" height="5.5"/>
          <rect class="cls-6" x="425.2" y="240.3" width="12.7" height="77.3"/>
          <rect class="cls-6" x="417.7" y="231.7" width="27.7" height="35.9" rx="9.1" ry="9.1"/>
        </g>
      </g>
      <g>
        <path class="cls-6" d="M642.2,576.9c100-75.6,122-221.2,51.4-324.8,67.4,102.9,44.3,241.9-48.9,314.6-3.3,2.6-4.5,7.1-2.5,10.2h0Z"/>
        <g>
          <path class="cls-6" d="M710,544.2c-10.4.6-20.6.5-30.6-.2"/>
          <path class="cls-6" d="M710,544.2c-7.9-3.2-21-3-30.6-.2,7.4,4.3,20.7,4.7,30.6.2h0Z"/>
        </g>
        <g>
          <path class="cls-6" d="M721.5,526.9c-10.3,1.5-20.4,2.2-30.4,2.3"/>
          <path class="cls-6" d="M721.5,526.9c-8.1-2.6-21.2-1.3-30.4,2.3,7.7,3.6,20.9,3,30.4-2.3h0Z"/>
        </g>
        <g>
          <path class="cls-6" d="M731.6,508.4c-10.1,2.3-20.1,3.9-30.1,4.8"/>
          <path class="cls-6" d="M731.6,508.4c-8.3-1.9-21.1.5-30.1,4.8,7.9,3,21,1.2,30.1-4.8h0Z"/>
        </g>
        <g>
          <path class="cls-6" d="M740.6,488.5c-9.9,3.1-19.7,5.6-29.5,7.3"/>
          <path class="cls-6" d="M740.6,488.5c-8.4-1.2-21,2.3-29.5,7.3,8.1,2.3,21-.6,29.5-7.3t0,0Z"/>
        </g>
        <g>
          <path class="cls-6" d="M747.9,468c-9.6,4-19.2,7.3-28.8,9.8"/>
          <path class="cls-6" d="M747.9,468c-8.5-.4-20.7,4.1-28.8,9.8,8.3,1.5,20.9-2.4,28.8-9.8t0,0Z"/>
        </g>
        <g>
          <path class="cls-6" d="M753.3,448.2c-9.2,4.8-18.6,8.8-27.9,12.1"/>
          <path class="cls-6" d="M753.3,448.2c-8.5.3-20.4,5.8-27.9,12.1,8.4.9,20.6-4.1,27.9-12.1h0Z"/>
        </g>
        <g>
          <path class="cls-6" d="M757.2,427.6c-8.8,5.5-17.8,10.3-26.9,14.4"/>
          <path class="cls-6" d="M757.2,427.6c-8.4,1-19.8,7.5-26.9,14.4,8.4.1,20.2-5.8,26.9-14.4h0Z"/>
        </g>
        <g>
          <path class="cls-6" d="M759.5,405.9c-8.4,6.3-17,11.9-25.7,16.8"/>
          <path class="cls-6" d="M759.5,405.9c-8.3,1.7-19.2,9.2-25.7,16.8,8.4-.6,19.7-7.6,25.7-16.8t0,0Z"/>
        </g>
        <g>
          <path class="cls-6" d="M760.2,384.1c-7.8,7-16,13.3-24.3,19"/>
          <path class="cls-6" d="M760.2,384.1c-8.1,2.5-18.4,10.9-24.3,19,8.3-1.3,19-9.3,24.3-19t0,0Z"/>
        </g>
        <g>
          <path class="cls-6" d="M759.2,363.5c-7.3,7.7-14.9,14.7-22.8,21"/>
          <path class="cls-6" d="M759.2,363.5c-7.9,3.2-17.5,12.4-22.8,21,8.2-2,18.3-10.9,22.8-21h0Z"/>
        </g>
        <g>
          <path class="cls-6" d="M756.6,342.6c-6.7,8.3-13.7,15.9-21.1,22.9"/>
          <path class="cls-6" d="M756.6,342.6c-7.7,3.8-16.5,13.9-21.1,22.9,8-2.7,17.4-12.4,21.1-22.9h0Z"/>
        </g>
        <g>
          <path class="cls-6" d="M752.1,321c-6,8.9-12.4,17.2-19.1,24.8"/>
          <path class="cls-6" d="M752.1,321c-7.3,4.5-15.3,15.4-19.1,24.8,7.8-3.4,16.3-14,19.1-24.8h0Z"/>
        </g>
        <g>
          <path class="cls-6" d="M745.8,299.8c-5.2,9.5-10.9,18.4-17,26.6"/>
          <path class="cls-6" d="M745.8,299.8c-6.9,5.2-13.9,16.8-17,26.6,7.4-4.1,15.1-15.5,17-26.6h0Z"/>
        </g>
        <g>
          <path class="cls-6" d="M738.3,280.2c-4.4,10-9.4,19.3-14.8,28.2"/>
          <path class="cls-6" d="M738.3,280.2c-6.5,5.8-12.5,18.1-14.8,28.2,7.1-4.8,13.8-16.8,14.8-28.2h0Z"/>
        </g>
        <g>
          <path class="cls-6" d="M728.9,260.7c-3.5,10.4-7.7,20.3-12.4,29.6"/>
          <path class="cls-6" d="M728.9,260.7c-6,6.4-10.9,19.3-12.4,29.6,6.7-5.4,12.4-18,12.4-29.6h0Z"/>
        </g>
        <g>
          <path class="cls-6" d="M717.3,241c-2.6,10.8-5.8,21.1-9.7,30.9"/>
          <path class="cls-6" d="M717.3,241c-5.4,6.9-9.2,20.4-9.7,30.9,6.2-6,10.8-19.3,9.7-30.9t0,0Z"/>
        </g>
        <g>
          <path class="cls-6" d="M701.2,275.5c-9.8-1.4-19.6-2.2-29.1-2.2"/>
          <path class="cls-6" d="M701.2,275.5c-8.1,2.3-20.6,1.1-29.1-2.2,7.7-3.4,20.4-2.7,29.1,2.2h0Z"/>
        </g>
        <g>
          <path class="cls-6" d="M709.2,292.2c-9.6-2.2-19.2-3.7-28.7-4.5"/>
          <path class="cls-6" d="M709.2,292.2c-8.3,1.6-20.6-.6-28.7-4.5,7.9-2.7,20.5-1.1,28.7,4.5h0Z"/>
        </g>
        <g>
          <path class="cls-6" d="M715.9,309.7c-9.4-3-18.8-5.3-28.2-6.8"/>
          <path class="cls-6" d="M715.9,309.7c-8.4.9-20.4-2.3-28.2-6.8,8.1-2,20.5.6,28.2,6.8h0Z"/>
        </g>
        <g>
          <path class="cls-6" d="M721.3,328.3c-9.1-3.8-18.3-6.8-27.5-9.2"/>
          <path class="cls-6" d="M721.3,328.3c-8.4.2-20.1-4.1-27.5-9.2,8.3-1.3,20.3,2.4,27.5,9.2t0,0Z"/>
        </g>
        <g>
          <path class="cls-6" d="M725.1,347.1c-8.8-4.5-17.6-8.4-26.6-11.5"/>
          <path class="cls-6" d="M725.1,347.1c-8.4-.6-19.7-5.8-26.6-11.5,8.3-.6,20,4.2,26.6,11.5h0Z"/>
        </g>
        <g>
          <path class="cls-6" d="M727.3,365c-8.4-5.2-16.9-9.8-25.6-13.6"/>
          <path class="cls-6" d="M727.3,365c-8.3-1.3-19.2-7.4-25.6-13.6,8.3.1,19.6,5.8,25.6,13.6h0Z"/>
        </g>
        <g>
          <path class="cls-6" d="M728.1,383.2c-8-5.9-16.1-11.1-24.5-15.7"/>
          <path class="cls-6" d="M728.1,383.2c-8.2-2-18.5-9-24.5-15.7,8.3.8,19.1,7.4,24.5,15.7h0Z"/>
        </g>
        <g>
          <path class="cls-6" d="M727.5,402.2c-7.5-6.6-15.2-12.5-23.1-17.8"/>
          <path class="cls-6" d="M727.5,402.2c-8-2.7-17.8-10.5-23.1-17.8,8.2,1.6,18.4,9,23.1,17.8,0,0,0,0,0,0Z"/>
        </g>
        <g>
          <path class="cls-6" d="M725.4,421.1c-6.9-7.2-14.1-13.8-21.6-19.7"/>
          <path class="cls-6" d="M725.4,421.1c-7.8-3.4-16.9-12.1-21.6-19.7,8,2.3,17.6,10.6,21.6,19.7h0Z"/>
        </g>
        <g>
          <path class="cls-6" d="M722,438.6c-6.4-7.8-13.1-14.9-20.1-21.5"/>
          <path class="cls-6" d="M722,438.6c-7.5-4-15.9-13.4-20.1-21.5,7.9,3,16.8,12,20.1,21.5h0Z"/>
        </g>
        <g>
          <path class="cls-6" d="M717.2,456.1c-5.7-8.3-11.9-16-18.4-23.1"/>
          <path class="cls-6" d="M717.2,456.1c-7.1-4.6-14.8-14.8-18.4-23.1,7.6,3.6,15.8,13.4,18.4,23.1t0,0Z"/>
        </g>
        <g>
          <path class="cls-6" d="M710.8,473.9c-5-8.8-10.6-17-16.5-24.7"/>
          <path class="cls-6" d="M710.8,473.9c-6.7-5.2-13.6-16.1-16.5-24.7,7.3,4.3,14.7,14.8,16.5,24.7h0Z"/>
        </g>
        <g>
          <path class="cls-6" d="M703,491.1c-4.3-9.2-9.1-17.9-14.4-26.1"/>
          <path class="cls-6" d="M703,491.1c-6.3-5.8-12.2-17.2-14.4-26.1,6.9,4.9,13.4,16.1,14.4,26.1t0,0Z"/>
        </g>
        <g>
          <path class="cls-6" d="M694.3,506.7c-3.6-9.6-7.7-18.7-12.3-27.3"/>
          <path class="cls-6" d="M694.3,506.7c-5.8-6.4-10.8-18.3-12.3-27.3,6.5,5.5,12.2,17.2,12.3,27.3h0Z"/>
        </g>
        <g>
          <path class="cls-6" d="M684.2,522c-2.8-9.9-6.2-19.4-10.1-28.4"/>
          <path class="cls-6" d="M684.2,522c-5.3-6.9-9.3-19.2-10.1-28.4,6.1,6,10.8,18.2,10.1,28.4h0Z"/>
        </g>
        <g>
          <path class="cls-6" d="M672.3,536.9c-1.9-10.2-4.5-20-7.6-29.3"/>
          <path class="cls-6" d="M672.3,536.9c-4.7-7.3-7.6-20.1-7.6-29.3,5.5,6.6,9.2,19.2,7.6,29.3h0Z"/>
        </g>
      </g>
      <path d="M434.4,162.7c.2-1.1-1.1-1.9-2-1.1-33.4,29.2-47,69.6-18.1,89.6,27,18.7,40.2-5.4,40.2-5.4,0,0,9.5-19.7-2.7-30.2-21.3-18.4-19-43.8-17.4-53Z"/>
      <path class="cls-6" d="M440.8,251.7c4.2-17.2-8.8-34.7-12.4-36.5s-11.6,12.2-10.1,21.3c2.5,14.6,11.3,15.8,11.3,15.8l11.2-.6Z"/>
      <path d="M477.9,159.3l1.8,16s15.5,67.5-39.9,74.2c-58.9,7.2-62.7-53.1-62.7-53.1,0,0,5.9,44.2,18.3,52.6,12.4,8.4,27.8,12.1,40.2,11.3,25.8-1.8,38.5-18.2,38.5-18.2l11-25.5,2.2-30.3-9.4-26.9Z"/>
      <circle class="cls-4" cx="431.5" cy="382.4" r="340.3"/>
      <circle class="cls-4" cx="431.5" cy="382.4" r="359"/>
      <path d="M829.3,523.6H28c-10-54-10.3-105,0-152.9h801.3c14,49.4,13.2,100.5,0,152.9Z"/>
      <path d="M820.1,370.9H42.9c-.9,3.8-1.7,7.7-2.5,11.6h782.2c-.8-3.9-1.6-7.7-2.5-11.6Z"/>
      <path d="M39.1,522.9h784.8c.7-3.8,1.3-7.7,1.9-11.6H37.2c.6,3.9,1.2,7.7,1.9,11.6Z"/>
      <path class="cls-6" d="M40.4,382.5c-.5,2.7-1,5.3-1.5,8h785.2c-.5-2.7-1-5.3-1.5-8H40.4Z"/>
      <path class="cls-6" d="M37.2,511.4h788.6c.4-2.7.8-5.3,1.1-8H36.1c.3,2.7.7,5.3,1.1,8Z"/>
      <path class="cls-6" d="M90.8,413.5l4.7,12.8c2.5,6.7,7.8,12,14.5,14.5l12.8,4.7-12.8,4.7c-6.7,2.5-12,7.8-14.5,14.5l-4.7,12.8-4.7-12.8c-2.5-6.7-7.8-12-14.5-14.5l-12.8-4.7,12.8-4.7c6.7-2.5,12-7.8,14.5-14.5l4.7-12.8Z"/>
      <path class="cls-6" d="M770.8,413.5l4.7,12.8c2.5,6.7,7.8,12,14.5,14.5l12.8,4.7-12.8,4.7c-6.7,2.5-12,7.8-14.5,14.5l-4.7,12.8-4.7-12.8c-2.5-6.7-7.8-12-14.5-14.5l-12.8-4.7,12.8-4.7c6.7-2.5,12-7.8,14.5-14.5l4.7-12.8Z"/>
      <g>
        <path class="cls-6" d="M153.4,222.9c1.2-2.9,3.2-6.8,6.5-12,3.3-5.2,6.7-8.3,10.3-9.5,3.4-1.2,7.6-.8,11.2,1.5,3.7,2.3,6,5.6,6.7,9.1.9,4.6-.6,9.7-3.8,14.7-.7,1.1-1.4,2.1-2,2.8l13.4,8.6-5.4,8.4-37-23.6ZM175.8,225.3c.6-.6,1.3-1.5,2-2.7,2.9-4.5,2.4-8.7-1.5-11.2-3.5-2.2-7-1.1-9.7,3.1-1.1,1.7-1.7,3-1.9,3.7l11.1,7.1Z"/>
        <path class="cls-6" d="M183.4,178.8l12.9,11.2,10.8-12.5-12.9-11.2,6.6-7.6,33.6,29.1-6.6,7.6-14.1-12.2-10.8,12.5,14.1,12.2-6.6,7.6-33.6-29.1,6.6-7.6Z"/>
        <path class="cls-6" d="M217.4,143.4l30.2,32.7-7.4,6.9-30.2-32.7,7.4-6.9Z"/>
        <path class="cls-6" d="M226.2,135.5l8-6.2,22,28.6,14-10.8,5.2,6.7-22,16.9-27.1-35.3Z"/>
        <path class="cls-6" d="M282.6,136l2.9,11.5-9,5.2-10.3-45.4,11.5-6.6,34.1,31.7-9.4,5.4-8.7-8.2-11.1,6.3ZM288.7,123.8l-7.1-6.8c-2-1.9-4.3-4.4-6.2-6.3h-.1c.7,2.7,1.8,5.9,2.5,8.5l2.4,9.5,8.5-4.9Z"/>
        <path class="cls-6" d="M300,89.7c3.2-1.9,7.6-3.9,12.4-5.7,7.9-3,13.6-3.5,18.7-2.1,5.5,1.6,10.2,5.6,13,13,3,8,2.2,14.5-.5,19.5-3,5.3-9,9.6-17.1,12.7-4.9,1.9-8.4,2.9-10.9,3.5l-15.6-40.8ZM322.4,120c.9-.1,2.2-.6,3.3-1.1,8.5-3.2,12.3-10,8.5-19.9-3.2-8.7-10-11.3-18.1-8.2-2.1.8-3.4,1.5-4.1,2l10.4,27.2Z"/>
        <path class="cls-6" d="M379.1,91.6l-16,3.6,2.3,10.3,17.8-4,1.8,8-27.7,6.3-9.8-43.4,26.8-6,1.8,8-16.9,3.8,2,9,16-3.6,1.8,8Z"/>
        <path class="cls-6" d="M386.1,64.5l10-1,3.7,35.8,17.6-1.8.9,8.4-27.6,2.8-4.5-44.3Z"/>
        <path class="cls-6" d="M423.9,61.9c3.1-.5,7.5-.8,13.6-.6,6.2.1,10.6,1.4,13.5,3.9,2.8,2.3,4.6,6,4.5,10.4s-1.6,8-4.3,10.5c-3.5,3.2-8.6,4.5-14.6,4.4-1.3,0-2.5-.1-3.4-.3l-.3,15.9-10-.2,1-43.9ZM433.4,82.3c.9.2,1.9.3,3.4.3,5.3.1,8.7-2.5,8.8-7.1,0-4.1-2.7-6.6-7.7-6.7-2,0-3.4.1-4.2.3l-.3,13.1Z"/>
        <path class="cls-6" d="M477.1,64.7l-2.8,16.9,16.3,2.8,2.8-16.9,9.9,1.7-7.4,43.9-9.9-1.7,3.1-18.4-16.3-2.8-3.1,18.4-10-1.7,7.4-43.9,10,1.7Z"/>
        <path class="cls-6" d="M525.1,75.4l-12.3,42.8-9.7-2.8,12.3-42.8,9.7,2.8Z"/>
        <path class="cls-6" d="M534,113.3l-7.3,9.4-9.7-3.9,29.4-36,12.2,5-4.1,46.4-10-4.1,1.1-11.9-11.8-4.8ZM547.3,110.6l1-9.8c.3-2.7.8-6.1,1.2-8.8h-.1c-1.6,2.1-3.5,5-5.1,7.1l-6,7.7,9.1,3.7Z"/>
        <path class="cls-6" d="M584.7,138.6l-9,7.8-8.7-5.8,35.9-29.5,11,7.3-13.1,44.7-9-6,3.5-11.4-10.6-7ZM598.3,138.6l2.9-9.4c.8-2.6,2-5.8,2.9-8.4h-.1c-2,1.8-4.4,4.2-6.5,5.9l-7.4,6.4,8.2,5.4Z"/>
        <path class="cls-6" d="M633.4,133.3c2.8,1.8,6.6,4.7,10.6,8.2,4.9,4.4,7.7,8.2,8.4,12.2.6,3.3-.4,6.6-3.1,9.7-3.8,4.2-9.4,4.5-13.2,2.9h-.1c1.5,3.1.8,6.5-1.1,10.3-2.3,4.7-5.1,9.9-5.6,11.8l-7.7-6.9c.3-1.5,1.9-4.8,4.6-9.8,2.8-4.9,2.4-7.3-.6-10.1l-2.3-2-11.6,13-7.4-6.6,29.2-32.7ZM628.1,154.2l3,2.6c3.7,3.3,7.6,3.4,10.2.5,2.7-3.1,2-6.4-1.4-9.6-1.8-1.6-3-2.4-3.6-2.8l-8.2,9.2Z"/>
        <path class="cls-6" d="M663.4,199.3l-10.7-12.4-8,6.9,12,13.8-6.2,5.4-18.6-21.5,33.6-29.1,18,20.8-6.2,5.4-11.4-13.1-7,6,10.7,12.4-6.2,5.4Z"/>
        <path class="cls-6" d="M669.1,219.8l-11.3,3.6-5.7-8.7,44.7-12.9,7.2,11.1-29.8,35.8-5.9-9.1,7.7-9.1-6.9-10.7ZM681.5,225.1l6.4-7.5c1.8-2.1,4.1-4.6,6-6.6h0c-2.6.8-5.8,2.1-8.3,2.9l-9.3,2.9,5.4,8.2Z"/>
      </g>
      <g>
        <path class="cls-6" d="M239.6,627.6l-9.4,7.2-8.3-6.2,37.5-27.5,10.6,7.9-15.6,43.9-8.7-6.5,4.1-11.2-10.2-7.6ZM253.2,628.3l3.4-9.2c.9-2.6,2.3-5.7,3.3-8.2h-.1c-2.1,1.6-4.7,3.9-6.8,5.6l-7.8,6,7.9,5.9Z"/>
        <path class="cls-6" d="M269.8,649.9c1.7,2.5,4.7,5.7,8.4,7.8,4,2.2,7.1,1.7,8.5-.8,1.3-2.4.2-4.8-3.5-9.1-5.2-5.8-7.5-11.7-4.4-17.4,3.7-6.7,12-8.7,21.2-3.6,4.4,2.4,7.1,5.1,8.9,7.4l-5.9,6c-1.1-1.6-3.3-4.2-7.1-6.3-3.8-2.1-6.6-1.4-7.7.6-1.4,2.5.2,4.8,4.2,9.5,5.5,6.3,6.8,11.7,3.7,17.2-3.6,6.5-11.7,9.4-22.4,3.5-4.5-2.4-8.2-6.1-9.7-8.5l5.8-6.3Z"/>
        <path class="cls-6" d="M304.8,668.2c2,2.3,5.4,5.1,9.4,6.7,4.3,1.7,7.3.8,8.3-1.9,1-2.6-.4-4.8-4.6-8.6-5.9-5.1-8.9-10.7-6.5-16.7,2.8-7.1,10.8-10.1,20.6-6.3,4.7,1.8,7.7,4.2,9.7,6.2l-5.1,6.7c-1.3-1.5-3.8-3.8-7.9-5.4s-6.7-.5-7.6,1.6c-1,2.6.8,4.7,5.4,8.9,6.2,5.6,8.2,10.7,5.9,16.6-2.7,6.9-10.4,10.8-21.8,6.3-4.7-1.9-8.9-5-10.7-7.2l5-7Z"/>
        <path class="cls-6" d="M384.6,679.5c-3.3,14.2-13.9,20.8-26.6,17.9-12.9-3-18.1-14.4-15.3-26.8,3-13,13.5-20.8,26.3-17.8,13.3,3.1,18.3,14.7,15.5,26.7ZM353.1,672.8c-2,8.5.6,15.4,7.2,16.9,6.6,1.5,11.9-3.9,13.8-12.3,1.8-7.8-.4-15.3-7.1-16.9-6.6-1.5-11.9,3.9-13.9,12.3Z"/>
        <path class="cls-6" d="M425,704.2c-1.9.8-6.1,1.5-11.5,1.1-15.3-1.1-22.5-11.3-21.6-24,1.1-15.1,12.5-22.8,26-21.8,5.2.4,9.1,1.7,10.8,2.8l-2.6,7.8c-2-1-4.8-2-8.3-2.3-8-.6-14.5,3.8-15.2,13.6-.7,8.9,4.2,14.9,13.2,15.5,3,.2,6.4-.2,8.5-.8l.9,7.9Z"/>
        <path class="cls-6" d="M444.5,660.3l1.2,44.5-10.1.3-1.2-44.5,10.1-.3Z"/>
        <path class="cls-6" d="M467.6,691.6l-1.6,11.7-10.3,1.4,7.4-45.9,13.1-1.8,19.8,42.2-10.7,1.5-5-10.8-12.6,1.7ZM477.8,682.6l-4-9c-1.1-2.5-2.4-5.7-3.4-8.2h-.1c-.3,2.7-.5,6.1-.9,8.8l-1.3,9.7,9.7-1.3Z"/>
        <path class="cls-6" d="M500.3,660.7l-11.5,3.1-2.2-8.2,33-8.8,2.2,8.2-11.7,3.1,9.2,34.8-9.8,2.6-9.2-34.8Z"/>
        <path class="cls-6" d="M533.7,641.3l15.6,41.7-9.5,3.5-15.6-41.7,9.5-3.5Z"/>
        <path class="cls-6" d="M587.8,639.4c6.7,13,2.9,24.9-8.7,30.8-11.7,6-23.2.7-29-10.5-6.1-11.9-3.1-24.6,8.6-30.6,12.1-6.3,23.5-.6,29.1,10.3ZM559.5,654.6c4,7.7,10.4,11.3,16.4,8.2,6-3.1,6.5-10.6,2.6-18.3-3.7-7.1-10.2-11.4-16.4-8.3-6,3.1-6.6,10.7-2.6,18.4Z"/>
        <path class="cls-6" d="M609.4,652.2l-26.6-35.7,9.4-7,17.2,7.5c4.9,2.2,10.3,5,14.9,7.9h.2c-4-4.4-7.8-9.1-11.8-14.5l-7.7-10.4,7.4-5.5,26.6,35.7-8.5,6.3-17.9-8.1c-5-2.2-10.7-5.1-15.6-8v.2c3.6,4.6,7.5,9.5,11.8,15.3l8,10.7-7.4,5.5Z"/>
      </g>
      <g>
        <path class="cls-6" d="M128.1,469.4c2.5,2.5,5.7,3.7,9.7,3.7,9,0,13.5-5.1,13.5-15.3v-47.1l-3.8-6.5h27l-4,6.5v47.1c0,22.6-10.9,33.8-32.6,33.8s-6.6-.5-9.8-1.4v-20.8Z"/>
        <path class="cls-6" d="M185.7,404.3h27.1l-4,6.5v46.8c0,10.4,4.5,15.6,13.4,15.6s13.5-5.1,13.5-15.3v-47.1l-3.8-6.5h27l-4,6.5v47.1c0,22.6-10.9,33.8-32.6,33.8s-32.7-11.5-32.7-34.4v-46.9l-3.8-6.2Z"/>
        <path class="cls-6" d="M331.2,402.9v28.4c-9-6.3-17.6-9.5-25.8-9.5-12.4,0-18.6,8.7-18.6,26.1s6,25.6,18.1,25.6,7.5-.6,10.2-1.7v-17.2l-3.8-6.7h22.8v35.1c-7.2,5.9-18.1,8.8-32.6,8.8-23.3,0-35-15-35-45s13.2-43.3,39.7-43.3,13.9,1.7,20.3,5l4.7-5.5Z"/>
        <path class="cls-6" d="M413.4,402.9v28.4c-9-6.3-17.6-9.5-25.8-9.5-12.4,0-18.6,8.7-18.6,26.1s6,25.6,18.1,25.6,7.5-.6,10.2-1.7v-17.2l-3.8-6.7h22.8v35.1c-7.2,5.9-18.1,8.8-32.6,8.8-23.3,0-35-15-35-45s13.2-43.3,39.7-43.3,13.9,1.7,20.3,5l4.7-5.5Z"/>
        <path class="cls-6" d="M431.1,404.3h27l-3.8,6.5v61.8h30.8l5.6-5.3v23.1h-59.6l4.1-6.5v-73.1l-4.1-6.5Z"/>
        <path class="cls-6" d="M502,404.3h61.5v23.1l-5.2-5.4h-33.3v16.9h21.1l4.9-5.4v27.5l-4.9-5.4h-21.1v16.9h33.3l5.2-5.4v23.1h-61.5l4.1-6.5v-73.1l-4.1-6.5Z"/>
        <path class="cls-6" d="M572.4,404.3h40.9c16.6,0,24.9,8.7,24.9,26s-4.9,22.9-14.8,26l17.8,34h-29l4-6.5-12.3-24.3h-8.5v24.3l4,6.5h-27l3.8-5.9v-74.4l-3.8-5.8ZM595.4,422v21.3h13.2c6.7,0,10.1-3.6,10.1-10.9,0-6.9-3.5-10.3-10.3-10.3h-13Z"/>
        <path class="cls-6" d="M703.9,402.9v27.6c-10.5-6.1-19.7-9.2-27.6-9.2s-7.3,1.8-7.5,5.3c0,3.6,6.4,7.8,19.1,12.6,12.9,6.1,19.3,14.7,19.3,25.9,0,17.7-9.1,26.5-27.2,26.5s-15.6-2.3-25.4-6.9l-5,7.2v-30.9c10.3,8.3,20.2,12.4,29.8,12.4s7.7-1.9,7.7-5.8-5-7.4-14.9-11.2c-8.3-3.4-14.4-7.6-18.4-12.7-3.1-4.7-4.6-10.3-4.6-16.7s3.5-14.9,10.5-19.6c5-2.9,11.1-4.3,18.2-4.3s12.4,1.9,21,5.8l5.1-6.1Z"/>
        <path class="cls-6" d="M719.8,437.6c3.3-2.9,5.5-5.2,6.4-6.9.9-1.8,1.4-2.9,1.5-3.4,0,0,0,0,0,0s-.3,0-.9,0c-2.5,0-4.6-1.2-6.1-3.5-1.5-2.3-2.3-5.2-2.3-8.8s.8-6.5,2.3-8.7c1.6-2.2,3.6-3.3,6.2-3.3s5.5,1.5,7.3,4.6c1.8,3.1,2.7,7,2.7,11.7,0,9.5-4.2,18.2-12.7,26.1l-4.3-7.7Z"/>
      </g>
    </g>
  </g>
</svg>