<?xml version="1.0" encoding="UTF-8"?>
<svg xmlns="http://www.w3.org/2000/svg" version="1.1" viewBox="0 0 860 763">
  <defs>
    <style>
      .cls-1 {
        fill: #fff;
      }
    </style>
  </defs>
  <!-- Generator: Adobe Illustrator 28.7.1, SVG Export Plug-In . SVG Version: 1.2.0 Build 142)  -->
  <g>
    <g id="Layer_1">
      <g>
        <path class="cls-1" d="M685.5,214l-9.3,2.9,5.4,8.2,6.4-7.5c1.8-2.1,4.1-4.6,6-6.6h0c-2.6.8-5.8,2.1-8.3,2.9Z"/>
        <path class="cls-1" d="M639.9,147.9c-1.8-1.6-3-2.4-3.6-2.8l-8.2,9.2,3,2.6c3.7,3.3,7.6,3.4,10.2.5,2.7-3.1,2-6.4-1.4-9.6Z"/>
        <path class="cls-1" d="M590.1,133.2l8.2,5.4,2.9-9.4c.8-2.6,2-5.8,2.9-8.4h-.1c-2,1.8-4.4,4.2-6.5,5.9l-7.4,6.4Z"/>
        <path class="cls-1" d="M548.3,100.8c.3-2.7.8-6.1,1.2-8.8h-.1c-1.6,2.1-3.5,5-5.1,7.1l-6,7.7,9.1,3.7,1-9.8Z"/>
        <path class="cls-1" d="M575.9,662.9c6-3.1,6.5-10.6,2.6-18.3-3.7-7.1-10.2-11.4-16.4-8.3-6,3.1-6.6,10.7-2.6,18.4,4,7.7,10.4,11.3,16.4,8.2Z"/>
        <path class="cls-1" d="M166.6,214.5c-1.1,1.7-1.7,3-1.9,3.7l11.1,7.1c.6-.6,1.3-1.5,2-2.7,2.9-4.5,2.4-8.7-1.5-11.2-3.5-2.2-7-1.1-9.7,3.1Z"/>
        <path class="cls-1" d="M325.7,119c8.5-3.2,12.3-10,8.5-19.9-3.2-8.7-10-11.3-18.1-8.2-2.1.8-3.4,1.5-4.1,2l10.4,27.2c.9-.1,2.2-.6,3.3-1.1Z"/>
        <path class="cls-1" d="M275.3,110.8c.7,2.6,1.8,5.9,2.5,8.5l2.4,9.5,8.5-4.9-7.1-6.8c-2-1.9-4.3-4.4-6.2-6.3h-.1Z"/>
        <path class="cls-1" d="M470.4,665.5h-.1c-.3,2.7-.5,6.1-.9,8.8l-1.3,9.7,9.7-1.3-4-9c-1.1-2.5-2.4-5.7-3.4-8.2Z"/>
        <path class="cls-1" d="M437.8,68.9c-2,0-3.4.1-4.2.3l-.3,13.1c.9.2,1.9.3,3.4.3,5.3.1,8.7-2.5,8.8-7.1,0-4.1-2.7-6.6-7.7-6.7Z"/>
        <path class="cls-1" d="M256.6,619.1c.9-2.6,2.3-5.7,3.3-8.2h-.1c-2.1,1.6-4.7,3.9-6.8,5.6l-7.8,6,7.9,5.9,3.4-9.2Z"/>
        <path class="cls-1" d="M353.1,672.8c-2,8.5.6,15.4,7.2,16.9,6.6,1.5,11.9-3.9,13.8-12.3,1.8-7.8-.4-15.3-7.1-16.9-6.6-1.5-11.9,3.9-13.9,12.3Z"/>
        <path class="cls-1" d="M829.3,370.6h-26.5C796.6,170.9,632.7,10.9,431.5,10.9S66.5,170.9,60.3,370.6H28c-10.3,47.9-10,99,0,152.9h59.8c55.6,135.1,188.5,230.2,343.7,230.2s288.1-95.1,343.7-230.2h54.1c13.2-52.4,14-103.5,0-152.9ZM100.8,363.5c3.5,1.4,7.3,4,10.9,7.1h-6.7c-1.7-2.2-3.1-4.6-4.2-7.1ZM152.3,271.9h0c-6.2-6-10.8-19.3-9.7-30.9,5.4,6.9,9.2,20.4,9.7,30.9,0,0,0,0,0,0h0ZM143.5,290.2s0,0,0,0h0s0,0,0,0c-6.7-5.4-12.4-18-12.4-29.6,6,6.4,10.9,19.3,12.4,29.6ZM136.5,308.3s0,0,0,0h0s0,0,0,0c-7.1-4.8-13.8-16.8-14.8-28.2,6.5,5.8,12.5,18.1,14.8,28.2ZM131.1,326.4s0,0,0,0h0s0,0,0,0c-7.4-4.1-15.1-15.5-17-26.6,6.9,5.2,13.9,16.8,17,26.6ZM127,345.8s0,0,0,0h0s0,0,0,0c-7.8-3.4-16.3-14-19.1-24.8,7.3,4.5,15.3,15.4,19.1,24.8ZM124.5,365.5s0,0,0,0h0s0,0,0,0c-8-2.7-17.4-12.4-21.1-22.9,7.7,3.8,16.5,13.9,21.1,22.9ZM166.5,252.1c-23.9,36.5-36.4,77.5-38.5,118.6h-2.2c2.8-41.5,16.1-82.5,40.7-118.6ZM194.2,166.3l6.6-7.6,33.6,29.1-6.6,7.6-14.1-12.2-10.8,12.5,14.1,12.2-6.6,7.6-33.6-29.1,6.6-7.6,12.9,11.2,10.8-12.5-12.9-11.2ZM311.7,132.5l-9.4,5.4-8.7-8.2-11.1,6.3,2.9,11.5-9,5.2-10.3-45.4,11.5-6.6,34.1,31.7ZM300,89.7c3.2-1.9,7.6-3.9,12.4-5.7,7.9-3,13.6-3.5,18.7-2.1,5.5,1.6,10.2,5.6,13,13,3,8,2.2,14.5-.5,19.5-3,5.3-9,9.6-17.1,12.7-4.9,1.9-8.4,2.9-10.9,3.5l-15.6-40.8ZM270.2,147.2l5.2,6.7-22,16.9-27.1-35.3,8-6.2,22,28.6,14-10.8ZM247.6,176l-7.4,6.9-30.2-32.7,7.4-6.9,30.2,32.7ZM181.5,202.9c3.7,2.3,6,5.6,6.7,9.1.9,4.6-.6,9.7-3.8,14.7-.7,1.1-1.4,2.1-2,2.8l13.4,8.6-5.4,8.4-37-23.6c1.2-2.9,3.2-6.8,6.5-12,3.3-5.2,6.7-8.3,10.3-9.5,3.4-1.2,7.6-.8,11.2,1.5ZM188,273.3c-8.5,3.3-21,4.5-29.1,2.2,8.7-5,21.4-5.6,29.1-2.2h0,0,0ZM179.6,287.7c-8.2,3.9-20.5,6.2-28.7,4.5,8.2-5.6,20.8-7.2,28.7-4.5h0,0s0,0,0,0ZM172.3,302.9c-7.8,4.5-19.8,7.8-28.2,6.8,7.7-6.2,20.1-8.9,28.2-6.8,0,0,0,0,0,0h0s0,0,0,0ZM166.2,319.1c-7.4,5.2-19.1,9.4-27.5,9.2,7.2-6.8,19.2-10.5,27.5-9.2,0,0,0,0,0,0h0s0,0,0,0ZM158.3,351.3c-6.4,6.3-17.3,12.4-25.6,13.6,6-7.9,17.3-13.5,25.6-13.6,0,0,0,0,0,0h0s0,0,0,0ZM134.9,347.1c6.6-7.4,18.3-12.1,26.6-11.5,0,0,0,0,0,0h0s0,0,0,0c-6.9,5.7-18.2,11-26.6,11.5ZM156.3,367.6h0s0,0,0,0c-.9,1-1.9,2.1-3,3.1h-6.8c3.3-1.7,6.8-2.8,9.8-3.1,0,0,0,0,0,0ZM248.6,199.4c44.8-44.8,103.1-71.1,165.7-75.2-.1,2-.4,4.4-1.1,7.1-126.4,9.2-227.2,112.1-233.1,239.3h-7c2.9-64.7,29.4-125.1,75.5-171.2ZM361.4,87.2l16-3.6,1.8,8-16,3.6,2.3,10.3,17.8-4,1.8,8-27.7,6.3-9.8-43.4,26.8-6,1.8,8-16.9,3.8,2,9ZM449.9,192.7c7.8,2.8,18.4-25.9,18.4-25.9,9,9.2,13.3,21.8,13.2,34.5-.5,8.6-2.4,18-6.9,26.3-2.8,4.9-6.4,9.3-10.9,12.9-2.7,2.1-5.7,3.9-9.2,5.3.8-1.8,8.8-20-2.8-30-21.3-18.4-19-43.8-17.4-53,.2-1.1-1.1-1.9-2-1.1-30.5,26.7-44.4,62.6-24.7,83.9-12.5-5.7-19.9-15.9-24.3-25.6-9.2-22.4,3.2-42.5,24.6-62.7,20.2-19,15.2-41.5,15.2-41.5,54.9,21.8,19,74,26.7,76.8ZM411.5,349v-10.9h40v10.9h-40ZM454.8,331.5h-46.5v-5.5h46.5v5.5ZM437.8,267.5v50.1h-12.7v-50.1c-4.2-.7-7.4-4.4-7.5-8.8,6.2,1.5,12.4,2,18,1.6,3.5-.2,6.7-.8,9.7-1.5-.2,4.3-3.3,7.9-7.5,8.6ZM428.4,215.2c3.4,1.7,15.4,17.8,12.8,34.1-.5,0-1,.1-1.5.2-5.4.7-10.3.7-14.8.4-2.5-2.1-5.4-6.1-6.6-13.4-1.6-9.1,6.5-23.1,10.1-21.3ZM436.6,90.4c-1.3,0-2.5-.1-3.4-.3l-.3,15.9-10-.2,1-43.9c3.1-.5,7.5-.8,13.6-.6,6.2.1,10.6,1.4,13.5,3.9,2.8,2.3,4.6,6,4.5,10.4s-1.6,8-4.3,10.5c-3.5,3.2-8.6,4.5-14.6,4.4ZM390.7,108.7l-4.5-44.3,10-1,3.7,35.8,17.6-1.8.9,8.4-27.6,2.8ZM238.5,245.4h76.1l-18.4-55.3h77.1c-1,3.3-1.8,6.6-2.1,10.1h-61l18.4,55.3h-76.6l33.9,115.2h-10.5l-36.9-125.3ZM264.7,265h77l-18.4-55.3h47.7c.7,6.9,3,14.2,7.4,21.7,8.5,14.4,20.2,21.5,30.2,25v2.1c0,6,3,11.4,7.5,14.6v43.8h-7.9c-5,0-9,4-9,9v5.5c0,2.8,1.3,5.3,3.3,6.9v10.6c0,1.8.5,3.4,1.4,4.8-.3,1.1-.5,2.4-.3,3.6l1.4,13.2h-109.2l-31.1-105.6ZM412.5,356.4h38l-1.6,14.2h-34.9l-1.6-14.2ZM459.1,353.8c.9-1.4,1.4-3.1,1.4-4.8v-10.6c2-1.7,3.2-4.1,3.2-6.9v-5.5c0-5-4-9-9-9h-7.9v-43.8c4.5-3.3,7.5-8.6,7.5-14.6v-2.3c16.6-5.6,29.4-19.8,34.4-38.4.7-2.7,1.3-5.4,1.7-8.1h49.2l-18.4,55.3h77l-31.1,105.6h-109.2l1.4-13.2c.1-1.2,0-2.4-.3-3.6ZM611.1,255.4h-76.6l18.4-55.3h-61.9c0-3.4-.3-6.8-.9-10.1h76.7l-18.4,55.3h76.1l-36.9,125.3h-10.5l33.9-115.2ZM457.8,132c-1.4-2.6-3.1-5.1-5.2-7.5,61.2,4.9,118,31.1,161.9,74.9s72.6,106.5,75.5,171.2h-7c-5.7-124.6-102.5-225.8-225.1-238.6ZM490.5,84.3l2.8-16.9,9.9,1.7-7.4,43.9-9.9-1.7,3.1-18.4-16.3-2.8-3.1,18.4-10-1.7,7.4-43.9,10,1.7-2.8,16.9,16.3,2.8ZM534,113.3l-7.3,9.4-9.7-3.9,29.4-36,12.2,5-4.1,46.4-10-4.1,1.1-11.9-11.8-4.8ZM512.8,118.1l-9.7-2.8,12.3-42.8,9.7,2.8-12.3,42.8ZM701.7,351.3s0,0,0,0c8.3.1,19.6,5.8,25.6,13.6-8.3-1.3-19.2-7.4-25.6-13.6h0,0ZM698.5,335.6h0,0s0,0,0,0c8.3-.6,20,4.2,26.6,11.5-8.4-.6-19.7-5.8-26.6-11.5ZM693.8,319.1s0,0,0,0h0s0,0,0,0c8.3-1.3,20.3,2.4,27.5,9.2-8.4.2-20.1-4.1-27.5-9.2ZM687.7,302.9s0,0,0,0h0s0,0,0,0c8.1-2,20.5.6,28.2,6.8-8.4.9-20.4-2.3-28.2-6.8ZM680.4,287.7s0,0,0,0h0s0,0,0,0c7.9-2.7,20.5-1.1,28.7,4.5-8.3,1.6-20.6-.6-28.7-4.5ZM672,273.3h0s0,0,0,0h0c7.7-3.4,20.4-2.7,29.1,2.2-8.1,2.3-20.6,1.1-29.1-2.2ZM674.2,248.6l-5.9-9.1,7.7-9.1-6.9-10.7-11.3,3.6-5.7-8.7,44.7-12.9,7.2,11.1-29.8,35.8ZM677.3,188.7l-11.4-13.1-7,6,10.7,12.4-6.2,5.4-10.7-12.4-8,6.9,12,13.8-6.2,5.4-18.6-21.5,33.6-29.1,18,20.8-6.2,5.4ZM649.3,163.4c-3.8,4.2-9.4,4.5-13.2,2.9h-.1c1.5,3.1.8,6.5-1.1,10.3-2.3,4.7-5.1,9.9-5.6,11.8l-7.7-6.9c.3-1.5,1.9-4.8,4.6-9.8,2.8-4.9,2.4-7.3-.6-10.1l-2.3-2-11.6,13-7.4-6.6,29.2-32.7c2.8,1.8,6.6,4.7,10.6,8.2,4.9,4.4,7.7,8.2,8.4,12.2.6,3.3-.4,6.6-3.1,9.7ZM600.9,163.1l-9-6,3.5-11.4-10.6-7-9,7.8-8.7-5.8,35.9-29.5,11,7.3-13.1,44.7ZM703.7,367.6s0,0,0,0h0s0,0,0,0c3.1.3,6.5,1.4,9.8,3.1h-6.8c-1.1-1-2.1-2.1-3-3.1ZM693.5,252.1c24.6,36,37.9,77.1,40.7,118.6h-2.2c-2-41-14.5-82-38.5-118.6ZM735.5,365.5c4.6-9,13.4-19.1,21.1-22.9-3.7,10.5-13.1,20.2-21.1,22.9h0s0,0,0,0c0,0,0,0,0,0ZM733,345.8h0s0,0,0,0c0,0,0,0,0,0,3.8-9.4,11.8-20.3,19.1-24.8-2.8,10.9-11.4,21.4-19.1,24.8ZM728.9,326.4s0,0,0,0h0s0,0,0,0c3-9.8,10.1-21.4,17-26.6-1.8,11.2-9.5,22.5-17,26.6ZM723.5,308.3s0,0,0,0h0s0,0,0,0c2.3-10.1,8.3-22.4,14.8-28.2-.9,11.4-7.7,23.4-14.8,28.2ZM716.5,290.2s0,0,0,0h0s0,0,0,0c1.4-10.3,6.4-23.2,12.4-29.6,0,11.5-5.7,24.2-12.4,29.6ZM707.7,271.9h0s0,0,0,0c0,0,0,0,0,0,.5-10.5,4.3-24,9.7-30.9,1.1,11.6-3.5,24.9-9.7,30.9ZM759.2,363.5c-1.1,2.5-2.5,4.9-4.2,7.1h-6.7c3.6-3.2,7.4-5.7,10.9-7.1ZM431.5,45.5c-181.8,0-330.4,144.8-336.6,325.1h-7c2.9-87.4,38.3-169.2,100.5-231.4,64.9-64.9,151.3-100.7,243.1-100.7s178.2,35.8,243.1,100.7c62.2,62.2,97.6,144,100.5,231.4h-7c-6.2-180.3-154.8-325.1-336.6-325.1ZM97.5,241.3c18.3-43.2,44.4-81.9,77.7-115.2,33.3-33.3,72.1-59.4,115.2-77.7,44.7-18.9,92.2-28.5,141.1-28.5s96.4,9.6,141.1,28.5c43.2,18.3,81.9,44.4,115.2,77.7s59.4,72.1,77.7,115.2c17.4,41.1,26.9,84.6,28.3,129.4h-7c-6.2-190.6-163.2-343.8-355.3-343.8S82.4,180,76.2,370.6h-7c1.4-44.8,10.9-88.3,28.3-129.4ZM40.4,382.5h782.2c.5,2.7,1,5.3,1.5,8H38.9c.5-2.7,1-5.3,1.5-8ZM802.8,445.5l-12.8,4.7c-6.7,2.5-12,7.8-14.5,14.5l-4.7,12.8-4.7-12.8c-2.5-6.7-7.8-12-14.5-14.5l-12.8-4.7,12.8-4.7c6.7-2.5,12-7.8,14.5-14.5l4.7-12.8,4.7,12.8c2.5,6.7,7.8,12,14.5,14.5l12.8,4.7ZM724.1,445.4l-4.3-7.7c3.3-2.9,5.5-5.2,6.4-6.9.9-1.8,1.4-2.9,1.5-3.4,0,0,0,0,0,0s-.3,0-.9,0c-2.5,0-4.6-1.2-6.1-3.5-1.5-2.3-2.3-5.2-2.3-8.8s.8-6.5,2.3-8.7c1.6-2.2,3.6-3.3,6.2-3.3s5.5,1.5,7.3,4.6c1.8,3.1,2.7,7,2.7,11.7,0,9.5-4.2,18.2-12.7,26.1ZM654.6,484.8l-5,7.2v-30.9c10.3,8.3,20.2,12.4,29.8,12.4s7.7-1.9,7.7-5.8-5-7.4-14.9-11.2c-8.3-3.4-14.4-7.6-18.4-12.7-3.1-4.7-4.6-10.3-4.6-16.7s3.5-14.9,10.5-19.6c5-2.9,11.1-4.3,18.2-4.3s12.4,1.9,21,5.8l5.1-6.1v27.6c-10.5-6.1-19.7-9.2-27.6-9.2s-7.3,1.8-7.5,5.3c0,3.6,6.4,7.8,19.1,12.6,12.9,6.1,19.3,14.7,19.3,25.9,0,17.7-9.1,26.5-27.2,26.5s-15.6-2.3-25.4-6.9ZM603.9,459.6h-8.5v24.3l4,6.5h-27l3.8-5.9v-74.4l-3.8-5.8h40.9c16.6,0,24.9,8.7,24.9,26s-4.9,22.9-14.8,26l17.8,34h-29l4-6.5-12.3-24.3ZM558.4,472.6l5.2-5.4v23.1h-61.5l4.1-6.5v-73.1l-4.1-6.5h61.5v23.1l-5.2-5.4h-33.3v16.9h21.1l4.9-5.4v27.5l-4.9-5.4h-21.1v16.9h33.3ZM286.9,447.9c0,17,6,25.6,18.1,25.6s7.5-.6,10.2-1.7v-17.2l-3.8-6.7h22.8v35.1c-7.2,5.9-18.1,8.8-32.6,8.8-23.3,0-35-15-35-45s13.2-43.3,39.7-43.3,13.9,1.7,20.3,5l4.7-5.5v28.4c-9-6.3-17.6-9.5-25.8-9.5-12.4,0-18.6,8.7-18.6,26.1ZM413.4,402.9v28.4c-9-6.3-17.6-9.5-25.8-9.5-12.4,0-18.6,8.7-18.6,26.1s6,25.6,18.1,25.6,7.5-.6,10.2-1.7v-17.2l-3.8-6.7h22.8v35.1c-7.2,5.9-18.1,8.8-32.6,8.8-23.3,0-35-15-35-45s13.2-43.3,39.7-43.3,13.9,1.7,20.3,5l4.7-5.5ZM435.2,483.9v-73.1l-4.1-6.5h27l-3.8,6.5v61.8h30.8l5.6-5.3v23.1h-59.6l4.1-6.5ZM170.5,410.8v47.1c0,22.6-10.9,33.8-32.6,33.8s-6.6-.5-9.8-1.4v-20.8c2.5,2.5,5.7,3.7,9.7,3.7,9,0,13.5-5.1,13.5-15.3v-47.1l-3.8-6.5h27l-4,6.5ZM95.5,464.7l-4.7,12.8-4.7-12.8c-2.5-6.7-7.8-12-14.5-14.5l-12.8-4.7,12.8-4.7c6.7-2.5,12-7.8,14.5-14.5l4.7-12.8,4.7,12.8c2.5,6.7,7.8,12,14.5,14.5l12.8,4.7-12.8,4.7c-6.7,2.5-12,7.8-14.5,14.5ZM189.5,457.3v-46.9l-3.8-6.2h27.1l-4,6.5v46.8c0,10.4,4.5,15.6,13.4,15.6s13.5-5.1,13.5-15.3v-47.1l-3.8-6.5h27l-4,6.5v47.1c0,22.6-10.9,33.8-32.6,33.8s-32.7-11.5-32.7-34.4ZM449.6,558.5l.2-10.1h75.1l7.3-24.9h10.5l-10.3,35h-82.8ZM517.7,538.9h-67.7l.4-15.3h71.8l-4.5,15.3ZM439.6,602.5l1.6,1.2c2.6,1.9,4.2,4.8,4.2,8v7.6c0,2-1.4,3.7-3.3,4.2-7.3,1.8-14.3,1.8-21.2,0-1.9-.5-3.3-2.2-3.3-4.2v-7.7c0-3.2,1.6-6.1,4.2-8l1.6-1.2-1.9-78.9h19.8l-1.9,78.9ZM413,538.9h-67.7l-4.5-15.3h71.8l.4,15.3ZM338.1,548.5h75.1l.2,10.1h-82.8l-10.3-35h10.5l7.3,24.9ZM431.5,634.1c86.5,0,162.9-43.9,208.3-110.5h8.6c-9.7,14.9-21.1,28.9-33.9,41.7-48.9,48.9-113.8,75.8-182.9,75.8s-134.1-26.9-182.9-75.8c-12.9-12.9-24.2-26.9-33.9-41.7h8.6c45.3,66.6,121.8,110.5,208.3,110.5ZM679.4,544c9.6-2.8,22.7-3.1,30.6.2-9.9,4.5-23.3,4.1-30.6-.2h0,0,0ZM691,529.1h0,0s0,0,0,0c9.3-3.6,22.3-4.8,30.4-2.3-9.5,5.3-22.8,5.9-30.4,2.3ZM642.2,576.9c-2-3.1-.9-7.6,2.5-10.2,16.1-12.6,30.1-27.1,41.9-43.1h6.5c-13.7,20-30.7,38.1-50.8,53.3ZM672.3,536.9c-2.3-3.5-4.1-8.3-5.4-13.4h4.9c.9,4.5,1.2,9.1.5,13.4ZM608.8,636l8,10.7-7.4,5.5-26.6-35.7,9.4-7,17.2,7.5c4.9,2.2,10.3,5,14.9,7.9h.2c-4-4.4-7.8-9.1-11.8-14.5l-7.7-10.4,7.4-5.5,26.6,35.7-8.5,6.3-17.9-8.1c-5-2.2-10.7-5.1-15.6-8v.2c3.6,4.6,7.5,9.5,11.8,15.3ZM558.7,629c12.1-6.3,23.5-.6,29.1,10.3,6.7,13,2.9,24.9-8.7,30.8-11.7,6-23.2.7-29-10.5-6.1-11.9-3.1-24.6,8.6-30.6ZM549.2,682.9l-9.5,3.5-15.6-41.7,9.5-3.5,15.6,41.7ZM519.3,693l-9.8,2.6-9.2-34.8-11.5,3.1-2.2-8.2,33-8.8,2.2,8.2-11.7,3.1,9.2,34.8ZM495.9,699.2l-10.7,1.5-5-10.8-12.6,1.7-1.6,11.7-10.3,1.4,7.4-45.9,13.1-1.8,19.8,42.2ZM445.7,704.8l-10.1.3-1.2-44.5,10.1-.3,1.2,44.5ZM415.5,697.1c3,.2,6.4-.2,8.5-.8l.9,7.9c-1.9.8-6.1,1.5-11.5,1.1-15.3-1.1-22.5-11.3-21.6-24,1.1-15.1,12.5-22.8,26-21.8,5.2.4,9.1,1.7,10.8,2.8l-2.6,7.8c-2-1-4.8-2-8.3-2.3-8-.6-14.5,3.8-15.2,13.6-.7,8.9,4.2,14.9,13.2,15.5ZM384.6,679.5c-3.3,14.2-13.9,20.8-26.6,17.9-12.9-3-18.1-14.4-15.3-26.8,3-13,13.5-20.8,26.3-17.8,13.3,3.1,18.3,14.7,15.5,26.7ZM326.5,659.5c6.2,5.6,8.2,10.7,5.9,16.6-2.7,6.9-10.4,10.8-21.8,6.3-4.7-1.9-8.9-5-10.7-7.2l5-7c2,2.3,5.4,5.1,9.4,6.7,4.3,1.7,7.3.8,8.3-1.9,1-2.6-.4-4.8-4.6-8.6-5.9-5.1-8.9-10.7-6.5-16.7,2.8-7.1,10.8-10.1,20.6-6.3,4.7,1.8,7.7,4.2,9.7,6.2l-5.1,6.7c-1.3-1.5-3.8-3.8-7.9-5.4s-6.7-.5-7.6,1.6c-1,2.6.8,4.7,5.4,8.9ZM292.3,644c5.5,6.3,6.8,11.7,3.7,17.2-3.6,6.5-11.7,9.4-22.4,3.5-4.5-2.4-8.2-6.1-9.7-8.5l5.8-6.3c1.7,2.5,4.7,5.7,8.4,7.8,4,2.2,7.1,1.7,8.5-.8,1.3-2.4.2-4.8-3.5-9.1-5.2-5.8-7.5-11.7-4.4-17.4,3.7-6.7,12-8.7,21.2-3.6,4.4,2.4,7.1,5.1,8.9,7.4l-5.9,6c-1.1-1.6-3.3-4.2-7.1-6.3-3.8-2.1-6.6-1.4-7.7.6-1.4,2.5.2,4.8,4.2,9.5ZM239.6,627.6l-9.4,7.2-8.3-6.2,37.5-27.5,10.6,7.9-15.6,43.9-8.7-6.5,4.1-11.2-10.2-7.6ZM188.2,523.6h4.9c-1.3,5-3.2,9.8-5.4,13.4-.7-4.2-.4-8.9.5-13.4ZM215.4,566.6c3.3,2.6,4.5,7.1,2.5,10.2-20.1-15.2-37.1-33.3-50.8-53.3h6.5c11.8,16,25.8,30.5,41.9,43.1ZM180.6,544h0c-7.4,4.3-20.7,4.7-30.6.2,7.9-3.2,21-3,30.6-.2h0s0,0,0,0ZM169,529.1h0c-7.7,3.6-20.9,3-30.4-2.3,8.1-2.6,21.2-1.3,30.4,2.3,0,0,0,0,0,0h0ZM431.5,719.2c135.3,0,252.3-80.2,305.8-195.6h7.9c-16.9,37.5-40.6,72-70.6,101.9-64.9,64.9-151.3,100.7-243.1,100.7s-178.2-35.8-243.1-100.7-53.7-64.4-70.5-101.9h7.9c53.5,115.4,170.4,195.6,305.8,195.6ZM687.8,638.7c-33.3,33.3-72.1,59.4-115.2,77.7-44.7,18.9-92.2,28.5-141.1,28.5s-96.4-9.6-141.1-28.5c-43.2-18.3-81.9-44.4-115.2-77.7-33.3-33.3-59.4-72-77.6-115.1h7.7c54.7,126,180.4,214.3,326.2,214.3s271.5-88.3,326.2-214.3h7.7c-18.3,43.1-44.4,81.8-77.6,115.1ZM825.8,511.4H37.2c-.4-2.7-.8-5.3-1.1-8h790.8c-.3,2.7-.7,5.3-1.1,8Z"/>
        <path class="cls-1" d="M608.4,422h-13v21.3h13.2c6.7,0,10.1-3.6,10.1-10.9,0-6.9-3.5-10.3-10.3-10.3Z"/>
      </g>
    </g>
  </g>
</svg>