<?xml version="1.0" encoding="UTF-8"?>
<svg xmlns="http://www.w3.org/2000/svg" version="1.1" viewBox="0 0 792 792">
  <defs>
    <style>
      .cls-1 {
        fill: #224058;
      }
    </style>
  </defs>
  <!-- Generator: Adobe Illustrator 28.7.1, SVG Export Plug-In . SVG Version: 1.2.0 Build 142)  -->
  <g>
    <g id="Layer_1">
      <g>
        <rect class="cls-1" x="383.5" y="376.8" width="30.4" height="13.3"/>
        <polygon class="cls-1" points="413.7 372.5 419.8 317 377.6 317 383.7 372.5 413.7 372.5"/>
        <rect class="cls-1" x="376.5" y="303.9" width="44.4" height="9.1"/>
        <rect class="cls-1" x="372.9" y="293" width="51.7" height="6.1"/>
        <path class="cls-1" d="M405.7,287.8v-13.2c-4.1.1-8.8.1-14.1-.3v13.5h14.1Z"/>
        <path class="cls-1" d="M374.4,134.3s8.7,7.6,9.7,16.7c3.7,32.3-33.3,28.4-34.3,71.5-.8,34.6,23.7,44.3,33.3,46.8,1.1.3,1.8-1.1,1.1-1.9-8-8.2-27.1-35.2-8-59.1,24.7-31,22.2-35.4,22.2-35.4,4.5,2.1,14.9,19.8,6.9,33-8,13.2,9,26,15.6,38.5,5.2,9.8-2.9,19.7-6.6,23.4-.5.5,0,1.3.6,1.2,61.2-13.5,32.7-74.9,32.7-74.9-5.6,13.9-21.5,19.4-21.5,19.4,4.2-6.9,12.5-69.4-51.7-79.1Z"/>
        <path class="cls-1" d="M385.9,255.3c5.5,8.5,18.4,20.8,23.2,2.4,4.7-17.9-15.6-25-20.1-38.9,0,0-13.9,19.8-3.1,36.4Z"/>
        <path class="cls-1" d="M132.2,294.6c2.4-6.3,3.1-12.3,1.2-17.4-1.5-3.9-5-7.1-9.7-9-4.8-1.9-9.8-1.3-13.3.9-3.8,2.3-6.8,6.6-9.4,13.3-2.8,7.1-4.3,12.2-5,15.8l46,17.9,4.8-12.4-15.8-6.2c.4-.7.9-1.8,1.3-3ZM122.6,291.1c-.5,1.3-.9,2.1-1.2,2.8l-11.9-4.6c.1-.7.4-2,1.2-3.8,1.8-4.7,5.1-6.1,8.6-4.8,4,1.6,5.3,5.6,3.4,10.5Z"/>
        <polygon class="cls-1" points="130.3 225.2 146.1 234.8 137.6 248.7 121.8 239.1 114.9 250.6 157.6 276.5 164.6 265 147.7 254.7 156.1 240.8 173 251.1 179.9 239.7 137.2 213.8 130.3 225.2"/>
        <rect class="cls-1" x="163.2" y="188.1" width="13.4" height="50" transform="translate(-102.6 211.4) rotate(-51.1)"/>
        <polygon class="cls-1" points="200.2 200 172.8 172.5 163.3 181.9 198.5 217.4 221.7 194.4 213.8 186.5 200.2 200"/>
        <path class="cls-1" d="M205.3,143.9l17.2,49.2,11.3-8.1-4.4-11.1,10.5-7.5,9.3,7.6,11.8-8.4-41.2-32-14.5,10.3ZM232.7,159.4l-7.5,5.4-3.4-8.5c-1-2.7-2.8-6.5-4-9.4h.1c2.3,1.9,5.5,4.7,7.7,6.5l7.1,6Z"/>
        <path class="cls-1" d="M278.7,107c-5.9-1-12.1.1-20.7,4.2-5.4,2.5-10.4,5.3-14,7.7l20.7,44.5c2.5-.7,6.6-2.2,12.5-4.9,8.9-4.1,15.5-9.3,18.7-15.5,2.8-5.5,3.6-13.1-.7-22.3-3.9-8.3-9.7-12.5-16.3-13.6ZM275.3,147.7c-.8.4-2,.9-2.6,1.1l-12.6-27c.5-.4,1.6-1.1,3.6-2,7.3-3.4,14.5-1.7,18.6,7.2,4.8,10.2,1,17.3-6.9,20.8Z"/>
        <polygon class="cls-1" points="321.2 129.1 318.7 120.2 336.1 115.4 333.2 105 315.9 109.7 313.7 101.9 332.1 96.9 329.3 86.4 297.9 94.9 311.1 143.2 343.5 134.4 340.6 123.8 321.2 129.1"/>
        <polygon class="cls-1" points="381.5 129.5 380.1 118.3 361 120.7 356.3 82.2 343 83.8 349.1 133.5 381.5 129.5"/>
        <path class="cls-1" d="M419.8,83.7c-3.4-2.8-8.5-4.2-15.7-4.4-7.6-.2-12.9.1-16.6.6l-1.3,49.3,13.3.4.5-17c.8,0,2,.2,3.3.2,6.8.2,12.7-1.2,16.8-4.8,3.2-2.7,5-7.1,5.1-12.2.1-5.1-2-9.6-5.4-12.2ZM403.2,102.6c-1.4,0-2.3-.1-3-.2l.3-12.8c.7-.1,2-.2,4-.2,5,.1,7.5,2.7,7.4,6.4-.1,4.3-3.4,6.9-8.7,6.7Z"/>
        <polygon class="cls-1" points="467.8 87.5 464.1 105.6 448.2 102.4 451.9 84.3 438.7 81.6 428.8 130.7 441.9 133.3 445.9 113.9 461.8 117.1 457.9 136.5 471 139.2 480.9 90.2 467.8 87.5"/>
        <rect class="cls-1" x="467.6" y="114.1" width="50" height="13.4" transform="translate(216.5 546.2) rotate(-70.8)"/>
        <path class="cls-1" d="M494.9,147.1l12.4,6.2,7.7-9.1,11.5,5.8-2.4,11.8,12.9,6.5,9.2-51.4-15.9-8-35.5,38.1ZM533.6,121.4c-.7,3-1.6,7.1-2.3,9.9l-2,9.1-8.3-4.2,5.9-7c1.9-2.2,4.5-5.6,6.5-7.9h.1Z"/>
        <path class="cls-1" d="M592.9,147.5l-43.3,28.9,10.6,8.9,9.6-7.1,9.9,8.3-5,10.9,11.1,9.3,20.7-47.9-13.6-11.5ZM584.7,177.9l-7.1-6,7.4-5.4c2.4-1.7,5.6-4.4,8.1-6.2h.1c-1.3,2.8-3.2,6.6-4.5,9.2l-4,8.4Z"/>
        <path class="cls-1" d="M625.3,217.8l.2-.2c3.6,2.1,10,2.8,14.8-1.2,3.7-3.2,5.3-6.8,5.1-10.8-.3-4.7-3-9.6-8-15.4-4.3-5.1-8.3-9.2-11.2-11.7l-37.7,31.8,8.6,10.1,14.3-12.1,1.4,1.6c2.7,3.2,2.9,5.4-.8,10.3-3.7,5.1-5.9,8.6-6.5,10.1l8.9,10.5c.9-2,5.4-7.9,8.3-12.4,2.5-3.7,3.8-7.2,2.7-10.6ZM621,204.8l-2.3-2.7,9.1-7.7c.5.4,1.5,1.3,3.1,3.3,2.8,3.5,2.8,6.7,0,9.1-2.8,2.4-6.6,1.8-9.9-2Z"/>
        <polygon class="cls-1" points="632.6 250.1 640.5 245.3 649.8 260.6 659.1 255 649.8 239.6 656.7 235.4 666.6 251.7 675.9 246.1 659 218.3 616.3 244.3 633.7 272.9 643.1 267.2 632.6 250.1"/>
        <path class="cls-1" d="M686.9,269.3l-51.8,5.2,5.2,12.9,11.8-1.7,4.8,12-9.5,7.3,5.4,13.4,40.8-32.5-6.6-16.5ZM672.8,286.7l-7.5,5.5-3.5-8.6,9.1-1.3c2.9-.4,7-1.2,10.1-1.6h0c-2.5,1.9-5.9,4.4-8.2,6.1Z"/>
        <path class="cls-1" d="M186.4,553.7l-54.1,23,9.9,12.1,12.1-5.8,9.2,11.3-7.8,11.1,10.3,12.7,33.1-48.8-12.7-15.6ZM177.1,577.2l-6.2,8.4-6.6-8.1,9.3-4.5c3-1.4,7.2-3.7,10.3-5.2h.1c-2.1,2.9-4.9,6.7-6.9,9.3Z"/>
        <path class="cls-1" d="M219.2,618.9c-3.8-6.6-5.3-9.4-3.5-11.6,1.6-1.9,4.6-1.6,8.2,1.3,4.4,3.6,6.6,7.5,7.8,9.9l10.2-7.2c-1.8-3.7-4.7-7.7-9.9-12.1-11-9.1-22.3-8.5-28.7-.9-5.4,6.4-3.9,14.5,1.3,23.2,3.5,5.7,4.4,8.6,2.7,10.7-1.8,2.2-4.9,1.9-8.9-1.4-4.3-3.6-7.5-8.5-9-12.1l-10.2,7.8c1.4,3.3,5.3,8.9,10.6,13.2,12.7,10.6,23.9,9,30.1,1.6,5-6.1,5-13.2-.5-22.5Z"/>
        <path class="cls-1" d="M269.9,625c-12.4-7.1-23.5-4.5-28.4,4.2-4.1,7.3-1.3,15,5.3,22.6,4.5,5,5.8,7.7,4.5,10.1-1.4,2.5-4.5,2.8-9,.2-4.9-2.8-8.9-7.1-11-10.3l-8.7,9.4c1.9,3,6.8,7.8,12.7,11.2,14.3,8.2,25.1,4.7,29.9-3.7,3.9-6.8,2.6-13.9-4.4-22.1-4.9-5.9-6.9-8.4-5.5-10.8,1.2-2.2,4.3-2.4,8.3-.1,5,2.8,7.8,6.3,9.4,8.4l8.7-8.9c-2.4-3.3-6-6.8-11.9-10.1Z"/>
        <path class="cls-1" d="M316,645.1c-16.4-5.3-30.7,3.7-35.8,19.4-4.8,14.9.2,30.4,16.9,35.8,16.6,5.4,30.5-2.2,36.1-19.5,4.7-14.3,0-30-17.2-35.6ZM317.9,676.2c-3.1,9.6-9.4,15.1-16.3,12.8-6.9-2.3-9.3-9.9-6-19.9,3.2-9.9,9.7-15,16.6-12.8,6.9,2.3,8.8,10.6,5.8,19.9Z"/>
        <path class="cls-1" d="M343.7,683.9c-1.6,14.9,6.3,29,27.3,31.2,6.7.7,12.1,0,14.4-.8l-.8-12.1c-2.4.7-6.6,1-10.3.6-10.3-1.1-15.8-8.1-14.7-18.3,1.2-11.5,9.2-15.8,17.9-14.9,4.5.5,7.8,1.8,10.2,3.1l4.2-11.5c-2.2-1.5-7.3-3.3-13.8-4-16.7-1.8-32.3,6.8-34.4,26.6Z"/>
        <rect class="cls-1" x="399.7" y="658.5" width="15.2" height="56.5" transform="translate(-24.2 15) rotate(-2)"/>
        <path class="cls-1" d="M435.9,656l-5.5,58.6,15.4-2.9.7-13.4,14.3-2.7,6,12.2,16-3.1-27.1-52.3-19.8,3.8ZM446.3,686.8l.5-10.3c.2-3.3.2-8.1.4-11.5h.2c1.5,3.1,3.4,7.4,4.8,10.4l4.5,9.5-10.3,2Z"/>
        <polygon class="cls-1" points="514 646.1 509.6 634.3 468.1 649.8 472.6 661.7 486.1 656.6 501.4 697.6 515.6 692.3 500.3 651.3 514 646.1"/>
        <rect class="cls-1" x="527.5" y="623.7" width="15.2" height="56.5" transform="translate(-245.9 333.3) rotate(-28.4)"/>
        <path class="cls-1" d="M557,603c-13.7,10.6-14.2,27.5-4.2,40.5,9.6,12.4,25.3,16.9,39.1,6.2,13.8-10.7,15.3-26.5,4.2-40.9-9.2-11.9-24.8-17-39.2-5.8ZM585.2,639.7c-5.8,4.5-13.4,2.1-19.9-6.2-6.4-8.2-6.9-16.5-1.2-20.9,5.8-4.5,13.7-1.3,19.7,6.4,6.2,8,7.2,16.3,1.4,20.7Z"/>
        <path class="cls-1" d="M615,544.1l-8.8,10.7,10.3,8.5c6.5,5.4,12.8,10.1,19.1,14.2l-.2.2c-6.7-2.3-14.6-4.5-20.9-5.7l-19.1-4.1-11.3,13.8,43.6,35.9,8.8-10.7-10.7-8.8c-7.1-5.8-13.8-11.1-19.9-15.7l.2-.2c7,2.3,15.2,4.2,21.9,5.6l20.6,4.6,10.1-12.3-43.6-35.9Z"/>
        <path class="cls-1" d="M758.2,394c-.3-48.1-9.8-94.8-28.4-138.7-18.2-43.1-44.3-81.7-77.5-114.9-33.2-33.2-71.9-59.3-114.9-77.5-44.6-18.9-91.9-28.4-140.7-28.4s-96.1,9.6-140.7,28.4c-43.1,18.2-81.7,44.3-114.9,77.5-33.2,33.2-59.3,71.9-77.5,114.9-18.6,44-28.1,90.6-28.4,138.7h-15.7v14.3h752.9v-14.3h-14.2ZM638,394c-1-123.7-95.1-225.2-215.6-237.9,2,2.9,3.7,5.8,5,8.6,6.5,13.9,7.3,28.6,6.2,38.9,3.6-2.7,7.4-6.5,9.5-11.6l4.3-10.8,4.9,10.5c.4.8,6.4,14.1,7,30.1h65.7l-17.4,54.2h71.9l-33.4,117.9h-10.1l30.7-108.2h-72.4l17.4-54.2h-52.8c-.4,3.1-1,6.2-2,9.2h42.1l-17.4,54.2h72.8l-28.1,99h-259.2l-28.1-99h72.8l-17.4-54.2h52.5c-.8-2.8-1.4-5.9-1.8-9.2h-63.3l17.4,54.2h-72.4l30.7,108.2h-10.1l-33.4-117.9h71.9l-17.4-54.2h76.2c.7-24.2,12.3-35.1,21.6-43.9,7.4-7,13-12.3,13-22.6-124.5,8.8-222.8,112.1-223.9,238.6H56C57.1,207,209.5,55.3,396.7,55.3s339.6,151.8,340.7,338.7h-99.5Z"/>
        <path class="cls-1" d="M19.6,509.9v14.3h39.1c1.6,4.2,3.2,8.4,5,12.5,18.2,43.1,44.3,81.7,77.5,114.9,33.2,33.2,71.9,59.3,114.9,77.5,44.6,18.9,91.9,28.4,140.7,28.4s96.1-9.6,140.7-28.4c43.1-18.2,81.7-44.3,114.9-77.5,33.2-33.2,59.3-71.9,77.5-114.9,1.8-4.1,3.4-8.3,5-12.5h37.6v-14.3H19.6ZM396.7,736.7c-142.5,0-264.9-88-315.7-212.5h111.3c42.7,67.9,118.3,113,204.4,113s161.7-45.1,204.4-113h111.3c-50.8,124.5-173.1,212.5-315.7,212.5ZM315.2,563.7l-11.2-39.4h83.9l1.8,75.8-1.8,1.3c-2.9,2.1-4.6,5.4-4.6,8.9v8.5c0,2.2,1.5,4.1,3.6,4.6,7.6,2,15.4,2,23.5,0,2.2-.5,3.7-2.4,3.7-4.6v-8.4c0-3.5-1.7-6.8-4.6-8.9l-1.8-1.3,1.8-75.8h80l-11.2,39.4h-63.3l-.2,9.2h70.4l13.8-48.6h10.1l-16.5,58.3h-78l-.3,14.2c4,3.3,6.4,8.2,6.4,13.4v8.4c0,5.2-3.5,9.7-8.6,10.9-4.6,1.1-9.1,1.7-13.6,1.7s-8.8-.6-13.1-1.7c-5-1.3-8.5-5.8-8.5-10.9v-8.5c0-5.2,2.4-10.1,6.4-13.4l-.3-14.2h-81.9l-16.5-58.3h10.1l13.8,48.6h74.4l-.2-9.2h-67.2Z"/>
        <path class="cls-1" d="M120.2,469.6c0,12-4.6,15.3-11.9,15.3s-6.5-.6-8.9-1.4l-1.9,14.1c3.4,1.1,8.7,1.8,12.7,1.8,16.9,0,27.5-7.7,27.5-29.7v-48.8h-17.4v48.5Z"/>
        <path class="cls-1" d="M203.8,465.5c0,13.6-5,20-14.2,20s-14-6.8-14-20v-44.4h-17.5v43.1c0,24.6,11.5,35.4,30.9,35.4s32.2-11.3,32.2-35.2v-43.3h-17.4v44.4Z"/>
        <path class="cls-1" d="M278.1,454v13.6h11.9v16.1c-1.4.7-4.6,1.1-8.6,1.1-14.3,0-24.3-9.4-24.3-25.3s11-25,25.5-25,13.7,1.5,18,3.3l3.7-14c-3.8-1.8-11.5-3.8-21.4-3.8-25.3,0-44,14.7-44.1,40.3-.1,11.3,3.8,21.4,10.9,28.1,7.1,6.9,17.3,10.4,31.4,10.4s20.4-2.5,25.8-4.4v-40.6h-28.7Z"/>
        <path class="cls-1" d="M362.3,454v13.6h11.9v16.1c-1.4.7-4.6,1.1-8.6,1.1-14.3,0-24.3-9.4-24.3-25.3s11-25,25.5-25,13.7,1.5,18,3.3l3.7-14c-3.8-1.8-11.5-3.8-21.4-3.8-25.3,0-44,14.7-44.1,40.3-.1,11.3,3.8,21.4,10.9,28.1,7.1,6.9,17.3,10.4,31.4,10.4s20.4-2.5,25.8-4.4v-40.6h-28.7Z"/>
        <polygon class="cls-1" points="428.2 421.1 410.7 421.1 410.7 498.2 458.9 498.2 458.9 483.6 428.2 483.6 428.2 421.1"/>
        <polygon class="cls-1" points="492.8 483.9 492.8 465.6 521.2 465.6 521.2 451.4 492.8 451.4 492.8 435.4 522.9 435.4 522.9 421.1 475.3 421.1 475.3 498.2 524.5 498.2 524.5 483.9 492.8 483.9"/>
        <path class="cls-1" d="M584.2,462.1v-.3c6.6-2.4,13.6-9.2,13.6-19s-2.5-12.5-7.1-16.1c-5.5-4.4-13.5-6.1-25-6.1s-17.6.7-23.2,1.6v76.1h17.3v-30.3h5.3c7.1.1,10.4,2.7,12.5,12.4,2.3,9.5,4.1,15.7,5.4,18h17.9c-1.5-3-3.9-13.1-6.3-21.8-1.9-7.1-4.9-12.3-10.3-14.4ZM566.7,455.3h-6.9v-21.3c1.3-.2,3.7-.6,7.9-.6,8,.1,12.8,3.7,12.8,10.8s-5.2,11.1-13.9,11.1Z"/>
        <path class="cls-1" d="M646.5,452.4c-10-3.8-14.3-6-14.3-10.9s3.7-7.4,11.2-7.4,13.1,2.2,16.1,3.7l3.9-14.1c-4.6-2.1-11-3.9-19.7-3.9-18.2,0-29.2,10.1-29.2,23.2s8.4,18.3,21.2,22.8c9.3,3.3,12.9,6.1,12.9,10.9s-4.2,8.4-12.3,8.4-14.7-2.4-19.4-4.8l-3.5,14.4c4.4,2.4,13.1,4.8,21.9,4.8,21.2,0,31.1-11.1,31.1-24s-6.4-18-20-23Z"/>
        <path class="cls-1" d="M678.2,451l10.5-1c5.2-8.6,10.2-19.8,13.7-30.9l-16.4,1c-1.5,10.1-4.5,21.1-7.9,30.9Z"/>
        <circle class="cls-1" cx="48.1" cy="456.7" r="19.6" transform="translate(-308.8 167.8) rotate(-45)"/>
        <circle class="cls-1" cx="745.4" cy="456.7" r="19.6" transform="translate(-85 183.5) rotate(-13.3)"/>
      </g>
    </g>
  </g>
</svg>